<svg width="211" height="85" viewBox="0 0 211 85" fill="none" xmlns="http://www.w3.org/2000/svg">
<g clip-path="url(#clip0_644_8095)">
<path d="M75.155 70.2816H76.1668C70.321 79.5016 61.6647 84.1679 50.3104 84.2241C43.3404 84.2241 36.9887 82.5375 31.1991 78.9957C25.4095 75.5101 20.8566 70.7314 17.5964 64.7721C14.28 58.8129 12.65 52.2352 12.5938 45.1515C12.5938 38.0116 14.1676 31.4902 17.4278 25.4747C20.6879 19.4592 25.1847 14.6805 30.9181 11.1387C36.7077 7.59688 43.0594 5.79785 50.0294 5.79785C54.0764 5.79785 57.7301 6.30383 60.8778 7.31578C64.0255 8.38395 67.3419 10.1268 70.7707 12.5442L71.7825 22.1577C69.9276 17.3791 67.0609 13.6124 63.1824 10.9138C59.3039 8.21529 54.9196 6.86602 50.0294 6.86602C44.296 6.86602 39.1247 8.60883 34.5155 11.982C29.9063 15.3552 26.3651 19.9652 23.7795 25.812C21.25 31.6588 19.9572 38.0679 20.0134 45.0953C20.0134 52.1227 21.3624 58.588 23.9481 64.3786C26.5337 70.1692 30.1874 74.7792 34.7965 78.0961C39.4057 81.4693 44.577 83.0997 50.3666 83.0997C55.3693 83.0997 60.0909 81.9753 64.5314 79.7265C68.8596 77.534 72.4008 74.3857 75.155 70.2816Z" fill="#E0E0DE"/>
<path d="M59.3595 11.0264C65.1491 7.48457 71.5008 5.68555 78.4708 5.68555C85.4408 5.68555 91.8486 7.37213 97.6382 10.914C103.428 14.3996 107.925 19.122 111.241 25.1375C114.557 31.0968 116.187 37.6745 116.244 44.7581C116.244 51.898 114.67 58.4195 111.41 64.4349C108.149 70.4504 103.653 75.2291 97.9193 78.7709C92.1297 82.3128 85.778 84.1118 78.808 84.1118C71.838 84.1118 65.4863 82.4252 59.6967 78.8834C53.9072 75.3978 49.3542 70.6191 46.094 64.6598C42.7214 58.7006 41.0914 52.1791 41.0352 45.0392C41.0352 37.8993 42.609 31.3779 45.8692 25.3624C49.1293 19.3469 53.6261 14.5682 59.3595 11.0264ZM78.7518 83.0436C82.2368 83.0436 85.5532 82.369 88.6447 81.0759C91.7362 79.7829 94.5467 77.9838 96.9637 75.6226C99.3807 73.3176 101.517 70.5629 103.315 67.4146C105.114 64.2663 106.463 60.7807 107.419 56.9015C108.374 53.0224 108.824 48.9746 108.768 44.7581C108.768 39.4735 107.981 34.4699 106.463 29.8037C104.945 25.1375 102.866 21.0897 100.224 17.7165C97.582 14.3434 94.3219 11.701 90.5558 9.67713C86.7898 7.70945 82.7427 6.6975 78.4708 6.75372C72.7374 6.75372 67.5661 8.49652 62.9569 11.8697C58.3477 15.2429 54.8065 19.8529 52.2209 25.6997C49.6914 31.5465 48.3986 37.9556 48.4548 44.983C48.4548 52.0104 49.8039 58.4757 52.3895 64.2663C54.9751 70.0569 58.6288 74.6669 63.238 77.9838C67.8471 81.4132 73.0184 83.0436 78.7518 83.0436Z" fill="#E0E0DE"/>
<path d="M158.628 70.0009H159.639C153.794 79.2209 145.137 83.8871 133.783 83.9433C126.813 83.9433 120.461 82.2567 114.672 78.7149C108.882 75.2293 104.329 70.4506 101.069 64.4914C97.7527 58.5321 96.1226 51.9544 96.0664 44.8708C96.0664 37.7309 97.6403 31.2094 100.9 25.1939C104.161 19.1784 108.657 14.3998 114.391 10.8579C120.18 7.31611 126.532 5.51709 133.502 5.51709C137.549 5.51709 141.203 6.02307 144.35 7.03502C147.498 8.10319 150.815 9.84599 154.243 12.2634L155.255 21.877C153.4 17.0983 150.534 13.3316 146.655 10.6331C142.777 7.93453 138.392 6.58526 133.502 6.58526C127.769 6.58526 122.597 8.32807 117.988 11.7012C113.379 15.0744 109.838 19.6844 107.252 25.5312C104.723 31.3781 103.43 37.7871 103.486 44.8145C103.486 51.842 104.835 58.3072 107.421 64.0978C110.006 69.8884 113.66 74.4984 118.269 77.8154C122.878 81.1886 128.05 82.8189 133.839 82.8189C138.842 82.8189 143.564 81.6945 148.004 79.4458C152.332 77.197 155.873 74.0487 158.628 70.0009Z" fill="#E0E0DE"/>
<path d="M142.831 10.7452C148.62 7.20332 154.972 5.4043 161.942 5.4043C168.912 5.4043 175.32 7.09088 181.109 10.6327C186.899 14.1183 191.452 18.897 194.712 24.8562C198.028 30.8155 199.659 37.3932 199.715 44.4769C199.715 51.6167 198.141 58.1382 194.881 64.1537C191.621 70.1692 187.124 74.9478 181.39 78.4897C175.601 82.0315 169.249 83.8305 162.279 83.8305C155.309 83.8305 148.957 82.1439 143.168 78.6021C137.378 75.1165 132.825 70.3378 129.565 64.3786C126.249 58.4193 124.619 51.8416 124.562 44.758C124.562 37.6181 126.136 31.0966 129.397 25.0811C132.6 19.0656 137.097 14.287 142.831 10.7452ZM162.223 82.7061C165.708 82.7061 169.024 82.0315 172.116 80.7384C175.207 79.4454 178.018 77.6464 180.435 75.2852C182.852 72.9802 184.988 70.2254 186.787 67.0771C188.585 63.9288 189.934 60.4432 190.89 56.5641C191.845 52.6849 192.295 48.6371 192.239 44.4206C192.239 39.136 191.452 34.1325 189.934 29.4663C188.417 24.8 186.337 20.7522 183.695 17.3791C181.053 14.0059 177.793 11.3636 174.027 9.33966C170.261 7.37198 166.214 6.36003 161.942 6.41625C156.209 6.41625 151.037 8.15905 146.428 11.5322C141.819 14.9054 138.278 19.5154 135.692 25.3622C133.163 31.2091 131.87 37.6181 131.926 44.6455C131.926 51.673 133.275 58.1382 135.861 63.9288C138.446 69.7194 142.1 74.3294 146.709 77.6464C151.318 81.0758 156.49 82.7624 162.223 82.7061Z" fill="#E0E0DE"/>
<g opacity="0.05">
<g opacity="0.05">
</g>
<g opacity="0.05">
</g>
</g>
<g opacity="0.05">
<g opacity="0.05">
<g opacity="0.05">
<path opacity="0.05" d="M178.021 120.879L178.808 121.497C168.522 125.152 158.854 123.465 149.86 116.494C144.352 112.221 140.417 106.88 138 100.584C135.639 94.2309 134.965 87.7094 136.089 80.9631C137.213 74.2168 139.911 68.0326 144.296 62.4107C148.68 56.7887 153.964 52.6285 160.259 49.9299C166.498 47.2314 173.019 46.2194 179.708 47.0065C186.453 47.7936 192.523 50.3235 198.032 54.5962C201.236 57.0698 203.765 59.7121 205.62 62.5231C207.475 65.2779 208.993 68.7072 210.173 72.7551L205.058 80.9069C206.576 76.0158 206.632 71.2933 205.227 66.7396C203.822 62.1858 201.236 58.4191 197.358 55.4394C192.861 51.8976 187.689 50.0424 182.012 49.8737C176.279 49.7051 170.658 51.1105 165.037 54.0902C159.416 57.0698 154.47 61.3425 150.141 66.9082C145.813 72.474 142.89 78.3208 141.317 84.5049C139.799 90.6891 139.799 96.5359 141.373 101.989C142.947 107.499 145.982 111.996 150.479 115.538C154.413 118.63 158.854 120.654 163.688 121.61C168.578 122.678 173.356 122.397 178.021 120.879Z" fill="#727387"/>
<path opacity="0.05" d="M202.192 64.5472C208.937 65.3343 215.008 67.8641 220.516 72.1368C226.025 76.4095 229.96 81.7504 232.377 88.047C234.737 94.3998 235.412 100.921 234.288 107.668C233.164 114.414 230.465 120.598 226.081 126.22C221.697 131.842 216.413 136.002 210.118 138.701C203.878 141.399 197.358 142.411 190.669 141.624C183.924 140.837 177.853 138.307 172.345 134.035C166.836 129.762 162.902 124.421 160.485 118.124C158.124 111.772 157.449 105.25 158.573 98.5038C159.698 91.7574 162.396 85.5733 166.78 79.9513C171.164 74.3294 176.448 70.1691 182.744 67.4706C188.983 64.7159 195.503 63.7601 202.192 64.5472ZM173.019 133.135C175.774 135.271 178.753 136.789 182.013 137.745C185.273 138.645 188.533 138.926 191.906 138.588C195.278 138.251 198.595 137.408 201.967 136.058C205.34 134.709 208.544 132.798 211.691 130.324C214.839 127.85 217.706 124.927 220.292 121.61C223.552 117.45 226.025 113.008 227.711 108.398C229.398 103.788 230.241 99.3471 230.241 95.0182C230.241 90.7455 229.341 86.6415 227.599 82.7061C225.856 78.827 223.271 75.5662 219.898 72.9239C215.401 69.3821 210.23 67.5268 204.553 67.3582C198.819 67.1895 193.199 68.595 187.578 71.5746C181.957 74.5543 177.01 78.827 172.682 84.3927C168.354 89.9584 165.431 95.8052 163.857 101.989C162.339 108.174 162.339 114.02 163.913 119.474C165.431 125.096 168.466 129.593 173.019 133.135Z" fill="#727387"/>
</g>
</g>
<g opacity="0.05">
<g opacity="0.05">
<path opacity="0.05" d="M11.6425 120.879L12.4294 121.497C2.14309 125.152 -7.52497 123.465 -16.5185 116.494C-22.027 112.221 -25.9617 106.88 -28.3787 100.584C-30.7395 94.2309 -31.4141 87.7094 -30.2899 80.9631C-29.1657 74.2168 -26.4676 68.0326 -22.0833 62.4107C-17.6989 56.7887 -12.4152 52.6285 -6.11973 49.9299C0.119541 47.2314 6.63986 46.2194 13.3288 47.0065C20.074 47.7936 26.1446 50.3235 31.6531 54.5962C34.8571 57.0698 37.3865 59.7121 39.2414 62.5231C41.0964 65.2779 42.614 68.7072 43.7944 72.7551L38.6793 80.9069C40.197 76.0158 40.2532 71.2933 38.848 66.7396C37.4427 62.1858 34.8571 58.4191 30.9786 55.4394C26.4819 51.8976 21.3106 50.0424 15.6334 49.8737C9.95622 49.7613 4.27905 51.1668 -1.34191 54.1464C-6.96287 57.126 -11.9093 61.3987 -16.2375 66.9644C-20.5656 72.5302 -23.4885 78.377 -25.0624 84.5611C-26.58 90.7453 -26.58 96.5921 -25.0062 102.045C-23.4323 107.555 -20.397 112.052 -15.9002 115.594C-11.9655 118.686 -7.52497 120.71 -2.69094 121.666C2.1993 122.678 6.97712 122.397 11.6425 120.879Z" fill="#727387"/>
<path opacity="0.05" d="M35.8132 64.5472C42.5583 65.3343 48.629 67.8641 54.1375 72.1368C59.6461 76.4095 63.5807 81.7504 65.9977 88.047C68.3585 94.3998 69.0331 100.921 67.9089 107.668C66.7847 114.414 64.0866 120.598 59.7023 126.22C55.3179 131.842 50.0342 136.002 43.7387 138.701C37.4995 141.399 30.9791 142.411 24.2902 141.624C17.545 140.837 11.4744 138.307 5.96587 134.035C0.457324 129.762 -3.47735 124.421 -5.89436 118.124C-8.25517 111.772 -8.92968 105.25 -7.80549 98.5038C-6.6813 91.7574 -3.98324 85.5733 0.401114 79.9513C4.78546 74.3294 10.0692 70.1691 16.3646 67.4706C22.6039 64.7159 29.1242 63.7601 35.8132 64.5472ZM6.64038 133.135C9.39465 135.271 12.3738 136.789 15.6339 137.745C18.8941 138.645 22.1542 138.926 25.5268 138.588C28.8994 138.251 32.2158 137.408 35.5883 136.058C38.9609 134.709 42.1649 132.798 45.3126 130.324C48.4603 127.85 51.327 124.927 53.9127 121.61C57.1728 117.45 59.646 113.008 61.3323 108.398C63.0186 103.788 63.8618 99.3471 63.8618 95.0182C63.8618 90.6893 62.9624 86.6415 61.2199 82.7061C59.4774 78.827 56.8918 75.5662 53.5192 72.9239C49.0224 69.3821 43.8512 67.5268 38.174 67.3582C32.4406 67.1895 26.8196 68.595 21.1987 71.5746C15.5777 74.5543 10.6313 78.827 6.30312 84.3927C1.97498 89.9584 -0.947917 95.8052 -2.52179 101.989C-4.03945 108.174 -4.03945 114.02 -2.46558 119.474C-0.947917 125.096 2.0874 129.593 6.64038 133.135Z" fill="#727387"/>
</g>
</g>
<g opacity="0.05">
</g>
<g opacity="0.05">
</g>
<g opacity="0.05">
</g>
<g opacity="0.05">
</g>
</g>
</g>
<defs>
<clipPath id="clip0_644_8095">
<rect width="210.786" height="83.7671" fill="white" transform="translate(0.00390625 0.569336)"/>
</clipPath>
</defs>
</svg>
