<svg width="1025" height="244" viewBox="0 0 1025 244" fill="none" xmlns="http://www.w3.org/2000/svg">
<path d="M80.6431 77.3975L85.6846 90.5229H84.8154C84.0331 88.8714 83.4246 87.5675 82.99 86.7852C82.5554 86.0029 81.7731 84.8729 80.6431 83.3083C79.5131 81.8306 78.1223 80.7006 76.5577 80.0052C74.9062 79.3098 73.0808 78.9622 70.9077 78.9622H47.96V190.311C47.96 193.005 49.6115 194.396 52.8277 194.396V195.265H33.0962V194.396C36.4862 194.396 38.1377 193.092 38.1377 190.311V79.136H15.1031C13.1038 79.136 11.2785 79.4837 9.62692 80.1791C7.97538 80.8745 6.58461 81.9175 5.54153 83.4821C4.41153 84.9598 3.62923 86.1768 3.19461 86.9591C2.76 87.7414 2.15154 88.9583 1.36923 90.6968H0.5L5.36769 77.5714H80.6431V77.3975Z" fill="#FAFAFA"/>
<path d="M102.375 83.0476C110.98 77.5714 120.542 74.8768 130.973 74.8768C141.403 74.8768 150.878 77.5714 159.57 83.0476C168.176 88.5237 174.956 95.8253 179.823 105.126C184.691 114.427 187.125 124.51 187.125 135.549C187.125 146.588 184.691 156.671 179.823 165.972C174.956 175.273 168.176 182.574 159.57 188.051C150.965 193.527 141.403 196.221 130.973 196.221C120.542 196.221 111.067 193.527 102.375 188.051C93.7695 182.574 86.9895 175.273 82.1218 165.972C77.2542 156.671 74.8203 146.588 74.8203 135.549C74.8203 124.51 77.2542 114.427 82.1218 105.126C86.9895 95.9122 93.7695 88.5237 102.375 83.0476ZM130.973 194.483C136.188 194.483 141.143 193.527 145.75 191.528C150.443 189.528 154.529 186.747 158.18 183.183C161.83 179.619 164.96 175.36 167.741 170.579C170.436 165.711 172.522 160.322 173.913 154.324C175.303 148.327 175.999 142.068 175.999 135.549C175.999 127.378 174.869 119.642 172.696 112.428C170.436 105.213 167.393 98.9545 163.395 93.7391C159.396 88.5237 154.616 84.3514 148.966 81.3091C143.316 78.1799 137.318 76.7022 130.886 76.7022C122.28 76.7022 114.544 79.3099 107.677 84.5253C100.81 89.7406 95.4211 96.8683 91.5965 105.821C87.7719 114.774 85.8595 124.771 85.8595 135.636C85.8595 146.501 87.7719 156.498 91.5965 165.451C95.4211 174.404 100.81 181.531 107.677 186.747C114.631 191.875 122.367 194.483 130.973 194.483Z" fill="#FAFAFA"/>
<path d="M255.009 77.3975L260.051 90.5229H259.182C258.399 88.8714 257.791 87.5675 257.356 86.7852C256.922 86.0029 256.139 84.8729 255.009 83.3083C253.879 81.8306 252.489 80.7006 250.924 80.0052C249.272 79.3098 247.447 78.9622 245.274 78.9622H222.326V190.311C222.326 193.005 223.978 194.396 227.194 194.396V195.265H207.549V194.396C210.939 194.396 212.591 193.092 212.591 190.311V79.136H189.556C187.557 79.136 185.732 79.4837 184.08 80.1791C182.429 80.8745 181.038 81.9175 179.995 83.4821C178.865 84.9598 178.082 86.1768 177.648 86.9591C177.213 87.7414 176.605 88.9583 175.822 90.6968H174.953L179.821 77.5714H255.009V77.3975Z" fill="#FAFAFA"/>
<path d="M332.893 190.484C334.023 193.179 336.283 194.57 339.76 194.57V195.439H320.028V194.57C321.506 194.57 322.462 194.222 323.071 193.614C323.592 193.005 323.679 192.223 323.245 191.18L309.25 155.281H262.92L251.012 191.006C250.664 192.136 250.838 193.005 251.446 193.614C252.055 194.222 253.098 194.57 254.575 194.57V195.439H243.102V194.57C246.578 194.57 248.752 193.266 249.708 190.484L287.259 77.4845H288.91L332.893 190.484ZM263.615 153.542H308.815L284.303 91.0445L263.615 153.542Z" fill="#FAFAFA"/>
<path d="M413.561 182.227H414.43L409.562 195.352H345.674V194.483C348.977 194.483 350.542 193.179 350.542 190.398V82.3521C350.542 79.6575 348.89 78.2668 345.674 78.2668V77.3975H365.405V78.2668C362.015 78.2668 360.364 79.5706 360.364 82.3521V193.701H399.827C401.478 193.701 403.043 193.44 404.521 192.831C405.998 192.31 407.128 191.614 407.998 191.006C408.867 190.311 409.736 189.354 410.605 187.964C411.475 186.573 412.083 185.704 412.344 185.095C412.605 184.487 412.952 183.531 413.561 182.227Z" fill="#FAFAFA"/>
<path d="M456.065 99.1283C456.152 102.953 457.455 106.43 459.889 109.472C462.323 112.601 465.452 115.209 469.364 117.382C473.275 119.555 477.535 121.641 482.142 123.728C486.835 125.727 491.442 127.9 496.136 130.334C500.83 132.681 505.002 135.288 508.827 138.07C512.652 140.851 515.781 144.415 518.215 148.761C520.649 153.108 521.865 157.975 521.865 163.365C521.865 168.667 520.562 173.448 517.867 177.794C515.172 182.14 511.869 185.53 507.697 188.138C503.525 190.745 499.092 192.745 494.311 194.135C489.53 195.526 484.749 196.221 479.882 196.221C466.495 196.221 455.456 192.831 446.677 186.138L444.504 169.449C446.677 175.968 450.762 181.792 456.934 186.921C463.105 192.049 470.755 194.57 479.882 194.57C488.661 194.57 495.962 191.962 501.96 186.834C507.871 181.705 510.913 174.838 510.913 166.32C510.913 161.452 509.783 157.193 507.436 153.455C505.176 149.718 502.221 146.588 498.57 144.068C495.006 141.634 490.921 139.287 486.488 137.201C482.055 135.028 477.622 132.941 473.189 130.855C468.755 128.769 464.67 126.596 460.932 124.249C457.195 121.989 454.152 119.034 451.632 115.383C449.198 111.819 447.807 107.734 447.546 103.214C447.112 93.7391 449.98 86.6984 456.325 82.0045C462.584 77.3107 470.929 74.9637 481.272 74.9637C492.833 74.9637 502.916 78.5276 511.609 85.5684L513.173 100.432C510.565 93.2176 506.654 87.4807 501.439 83.1345C496.223 78.7884 489.53 76.6153 481.272 76.6153C473.449 76.6153 467.191 78.7014 462.758 82.9607C458.325 87.133 456.065 92.5222 456.065 99.1283Z" fill="#FAFAFA"/>
<path d="M615.047 189.615C617.307 192.31 620.262 193.701 624 193.701V194.57H601.922V193.701C604.703 193.701 604.964 192.397 602.791 189.615L558.634 134.332L543.596 153.89V189.615C543.596 192.31 545.248 193.701 548.638 193.701V194.57H528.906V193.701C532.122 193.701 533.774 192.397 533.774 189.615V81.4829C533.774 78.7883 532.122 77.3975 528.906 77.3975V76.5283H548.638V77.3975C545.248 77.3975 543.596 78.7014 543.596 81.4829V151.717L597.315 81.4829C599.314 78.7883 598.966 77.3975 596.098 77.3975V76.5283H607.572V77.3975C603.834 77.3975 600.965 78.7014 598.792 81.4829L564.284 126.77L615.047 189.615Z" fill="#FAFAFA"/>
<path d="M837.048 207.608C843.741 214.823 850.695 218.995 857.91 220.125C852.607 220.125 848.087 219.604 844.176 218.474C840.264 217.344 836.614 215.344 833.224 212.563C827.313 218.474 820.185 221.516 811.754 221.516C811.58 221.516 811.406 221.516 811.145 221.516C810.102 221.516 809.146 221.516 808.364 221.429C807.581 221.429 806.19 221.255 804.365 221.081C802.54 220.908 800.888 220.56 799.411 220.038C797.933 219.604 796.281 218.821 794.282 217.865C792.37 216.909 790.631 215.692 789.241 214.301C787.85 212.911 786.459 211.085 785.068 208.825C783.764 206.565 782.634 204.044 781.939 201.35C780.983 197.178 780.809 193.353 781.417 189.876C782.026 186.312 783.33 183.096 785.329 180.141C787.328 177.185 789.501 174.751 792.022 172.665C794.456 170.666 797.064 169.101 799.758 167.971C799.584 167.711 799.324 167.363 798.976 166.841C788.98 154.933 785.764 141.721 791.674 129.899C793.413 126.509 796.455 123.901 799.411 121.815C802.453 119.729 806.017 118.686 810.102 118.686C816.013 118.686 821.402 120.511 826.27 124.075L827.574 135.288C825.922 131.029 823.575 127.465 820.446 124.423C817.317 121.381 813.927 119.903 810.102 119.903C806.712 119.903 804.365 121.207 801.757 123.293C799.324 125.205 797.064 129.551 796.107 132.768C793.847 140.678 794.804 149.718 801.931 159.801C803.844 162.495 807.755 167.884 809.928 170.579C810.276 171.014 816.187 178.576 819.229 183.009C822.271 187.442 824.705 191.093 826.617 193.788C830.529 199.438 833.571 203.523 835.831 206.044C838.7 201.871 840.351 197.264 840.699 192.136C841.134 187.008 840.264 181.966 838.004 177.098C837.048 175.186 835.136 174.23 832.354 174.23V173.621H841.134V174.23C838.874 174.23 838.265 175.273 839.308 177.359C841.134 181.184 842.09 185.008 842.264 188.833C842.437 192.744 842.09 196.134 841.134 199.09C840.091 202.132 838.787 204.914 837.048 207.608ZM812.362 217.778C819.403 218.734 825.835 216.474 831.485 211.085C827.747 207.695 823.836 203.001 819.577 196.83C811.754 185.53 805.321 176.316 800.454 169.188C795.499 172.491 792.196 176.838 790.284 182.227C788.458 187.616 788.284 193.179 789.849 198.742C791.414 204.305 794.282 208.738 798.541 211.954C802.801 215.171 807.321 217.083 812.362 217.778Z" fill="#FAFAFA"/>
<path d="M961.433 175.621H962.997C953.871 189.876 940.484 197.004 922.926 197.004C912.148 197.004 902.325 194.309 893.372 188.833C884.419 183.357 877.465 176.055 872.424 166.754C867.382 157.454 864.861 147.371 864.861 136.331C864.861 125.292 867.382 115.209 872.424 105.908C877.465 96.6075 884.506 89.306 893.372 83.8298C902.325 78.3537 912.148 75.6591 922.926 75.6591C929.184 75.6591 934.835 76.4414 939.702 78.0929C944.57 79.7445 949.698 82.4391 954.914 86.2637L956.391 101.128C953.61 93.7391 949.177 87.9152 943.179 83.656C937.181 79.4837 930.401 77.3106 922.839 77.3106C913.973 77.3106 905.976 79.9183 898.848 85.1337C891.721 90.3491 886.158 97.4768 882.159 106.43C878.161 115.383 876.161 125.379 876.161 136.244C876.161 147.11 878.161 157.106 882.159 166.059C886.158 175.012 891.721 182.14 898.848 187.355C905.976 192.571 913.973 195.178 922.839 195.178C930.575 195.178 937.877 193.44 944.744 190.05C951.611 186.834 957.174 181.966 961.433 175.621Z" fill="#FAFAFA"/>
<path d="M937.354 83.9168C946.308 78.4406 956.13 75.746 966.908 75.746C977.687 75.746 987.509 78.4406 996.462 83.9168C1005.42 89.3929 1012.37 96.6945 1017.41 105.995C1022.45 115.296 1024.97 125.379 1024.97 136.418C1024.97 147.458 1022.45 157.541 1017.41 166.841C1012.37 176.142 1005.33 183.444 996.462 188.92C987.509 194.396 977.687 197.091 966.908 197.091C956.13 197.091 946.308 194.396 937.354 188.92C928.401 183.444 921.448 176.142 916.406 166.841C911.364 157.541 908.844 147.458 908.844 136.418C908.844 125.379 911.364 115.296 916.406 105.995C921.448 96.6945 928.401 89.3929 937.354 83.9168ZM966.908 195.352C972.298 195.352 977.426 194.396 982.207 192.397C987.074 190.398 991.334 187.616 995.071 184.052C998.809 180.488 1002.11 176.229 1004.89 171.448C1007.68 166.581 1009.85 161.191 1011.33 155.194C1012.8 149.196 1013.5 142.938 1013.5 136.418C1013.5 128.248 1012.37 120.511 1010.02 113.297C1007.68 106.082 1004.55 99.8237 1000.46 94.6083C996.375 89.3929 991.421 85.2206 985.51 82.1783C979.686 79.0491 973.428 77.5714 966.821 77.5714C957.955 77.5714 949.958 80.1791 942.831 85.3945C935.703 90.6099 930.14 97.7376 926.141 106.691C922.143 115.644 920.144 125.64 920.144 136.505C920.144 147.371 922.143 157.367 926.141 166.32C930.14 175.273 935.703 182.401 942.831 187.616C950.045 192.744 958.042 195.352 966.908 195.352Z" fill="#FAFAFA"/>
<path d="M649.732 77.3975C646.342 77.3975 644.69 78.7014 644.69 81.4829V189.615C644.69 192.31 646.342 193.701 649.732 193.701V194.57H630V193.701C633.303 193.701 634.868 192.397 634.868 189.615V81.396C634.868 78.7014 633.216 77.3106 630 77.3106V76.4414H649.732V77.3975Z" fill="#FAFAFA"/>
<path d="M736.737 76.5283H748.211V77.3975C744.908 77.3975 743.344 78.7014 743.344 81.4829V194.483H741.692L666.243 81.396V189.528C666.243 192.223 667.894 193.614 671.111 193.614V194.483H659.637V193.614C662.94 193.614 664.504 192.31 664.504 189.528V81.396C664.504 78.7014 662.853 77.3106 659.637 77.3106V76.4414H674.327L741.692 176.316V81.396C741.692 78.7014 740.041 77.3106 736.824 77.3106V76.5283H736.737Z" fill="#FAFAFA"/>
<path d="M355.844 33.3276C355.323 33.8491 354.714 34.4576 354.193 34.9791C351.759 37.4999 349.325 39.8468 346.891 42.1937C344.458 44.5406 341.763 46.7137 338.894 48.8868C336.026 51.0599 332.636 53.146 328.811 55.2322C328.724 55.2322 328.638 55.3191 328.638 55.3191C327.855 55.6668 326.986 56.0145 325.943 56.4491C324.9 56.8837 323.857 57.1445 322.727 57.3183C321.597 57.4922 320.641 57.4052 319.684 57.0576C318.728 56.7099 318.033 55.9275 317.511 54.7975C317.164 53.6675 317.077 52.4506 317.424 51.0599C317.772 49.6691 318.207 48.2783 318.902 46.9745C319.598 45.6706 320.293 44.3668 321.075 43.2368C321.858 42.1068 322.553 41.2376 323.161 40.6291C325.856 37.6737 328.551 35.1529 331.158 33.0668C333.766 30.9806 336.548 28.8076 339.503 26.7214C341.328 25.4176 343.241 24.0268 345.24 22.4622C345.588 22.2014 345.588 21.9406 345.501 21.6799C345.414 21.4191 344.979 21.4191 344.284 21.6799C343.588 21.9406 342.98 22.2014 342.371 22.4622C341.763 22.7229 341.154 23.1576 340.459 23.5922C340.111 23.766 339.677 24.0268 339.329 24.2876C339.329 24.2876 339.329 24.2876 339.242 24.3745C338.808 24.6353 338.112 25.1568 337.069 25.7652C336.026 26.3737 334.896 27.0691 333.679 27.5906C332.462 28.1122 331.419 28.4599 330.55 28.4599C329.681 28.4599 329.246 27.9383 329.159 26.9822C329.159 25.5045 329.507 24.0268 330.289 22.3753C331.071 20.7237 332.114 19.1591 333.331 17.5076C334.548 15.856 336.026 14.3783 337.504 12.9876C338.981 11.5968 340.546 10.2929 342.111 9.16295C343.675 8.03295 345.066 7.16372 346.37 6.55526C347.674 5.94679 348.717 5.5991 349.586 5.68602C349.847 5.68602 350.021 5.85987 350.021 6.12064C350.021 6.38141 349.934 6.64218 349.847 6.98987C349.76 7.33756 349.412 7.51141 349.151 7.68526C348.456 7.94603 347.5 8.38063 346.457 9.07602C345.414 9.7714 344.371 10.3799 343.414 11.0753C342.458 11.7706 341.763 12.2052 341.415 12.5529C340.807 13.0745 340.285 13.5091 339.677 14.0306C338.112 15.3345 336.634 16.6383 335.331 17.9422C334.027 19.246 332.897 20.5499 332.028 21.9406C331.158 23.3314 330.55 24.896 330.202 26.6345C330.115 27.2429 330.463 27.5037 331.071 27.4168C331.68 27.3299 332.636 27.0691 333.679 26.5476C334.722 26.026 335.852 25.5045 336.982 24.8091C338.112 24.1137 339.155 23.5922 340.024 23.0706C340.807 22.636 341.415 22.2883 341.763 22.1145C343.241 21.3322 344.371 20.9845 345.24 21.0714C346.109 21.1583 346.37 21.506 346.283 22.2014C346.022 22.9837 345.327 23.766 344.197 24.7222C343.067 25.6783 341.763 26.6345 340.198 27.7645C338.286 29.0683 336.548 30.4591 334.896 31.8499C331.593 34.6314 328.811 37.326 326.464 39.7599C324.118 42.1937 322.466 44.4537 321.336 46.5399C320.988 47.1483 320.554 48.0176 320.206 49.0606C319.858 50.1037 319.511 51.1468 319.25 52.1899C318.989 53.2329 318.989 54.1022 319.25 54.8845C319.598 55.7537 320.293 56.1883 321.162 56.2752C322.031 56.3622 323.161 56.1883 324.204 55.8406C325.248 55.4929 326.378 55.0583 327.334 54.6237C328.29 54.1891 328.898 53.8414 329.333 53.5806C333.94 51.0599 338.112 48.2783 341.937 45.236C345.761 42.1937 350.281 38.1083 355.497 32.9799C355.584 32.8929 355.671 32.8929 355.758 32.9799C355.844 33.0668 355.844 33.1537 355.844 33.2406C355.844 33.3276 355.931 33.1537 355.844 33.3276Z" fill="#FDFDFD"/>
<path d="M370.535 32.6322C370.622 32.6322 370.709 32.7191 370.709 32.7191C370.709 32.7191 370.709 32.806 370.709 32.8929C369.927 33.6752 368.883 34.5445 367.667 35.5006C366.45 36.4568 365.059 37.4129 363.668 38.2822C362.277 39.1514 360.887 39.6729 359.67 39.8468C358.453 40.0206 357.323 39.7599 356.54 38.9775C356.28 38.7168 356.019 38.2822 355.932 37.9345C355.845 37.7606 355.758 37.6737 355.671 37.7606C355.584 37.8475 355.497 37.8475 355.41 37.9345C354.107 39.8468 352.977 41.846 351.847 43.7583C351.847 43.7583 351.76 43.8452 351.76 43.9322C351.586 44.1929 351.499 44.3668 351.325 44.3668C351.151 44.3668 351.064 44.3668 350.977 44.2798C350.89 44.1929 350.89 44.0191 350.977 43.8452C352.194 41.6722 353.498 39.4991 354.976 37.4129C355.063 37.2391 355.237 36.9783 355.323 36.7175C355.41 36.4568 355.497 36.196 355.497 35.9352C355.497 35.6745 355.584 35.3268 355.584 34.9791C355.671 33.2406 355.932 31.5022 356.28 29.7637C356.453 28.7206 356.627 27.7645 356.714 26.9822C356.801 26.7214 356.888 26.5475 357.149 26.3737C357.41 26.1999 357.67 26.1999 357.844 26.2868C358.018 26.3737 358.192 26.6345 358.192 27.156C358.105 28.3729 357.931 29.6768 357.67 31.0675C357.497 31.8498 357.41 32.7191 357.236 33.5014C357.236 33.6752 357.236 33.8491 357.323 33.8491C357.41 33.8491 357.497 33.7622 357.583 33.6752C358.105 32.9799 358.627 32.2845 359.061 31.5891C360.365 29.7637 361.669 27.9383 362.973 26.1129C362.973 26.026 363.06 26.026 363.147 26.026C363.233 26.026 363.233 26.026 363.32 26.1129C363.407 26.1999 363.32 26.1999 363.32 26.2868C361.93 28.4599 360.452 30.6329 358.974 32.7191C358.54 33.3275 358.192 33.936 357.757 34.4575C357.497 34.8922 357.236 35.3268 357.149 35.7614C357.149 35.7614 357.149 35.9352 357.062 36.1091C356.975 36.2829 356.975 36.5437 356.975 36.8045C356.975 37.2391 357.062 37.5868 357.236 38.0214C357.497 38.8037 358.018 39.2383 358.974 39.2383C359.93 39.2383 360.973 38.9775 362.277 38.3691C363.581 37.7606 364.972 37.0652 366.363 36.1091C367.753 35.1529 369.144 34.1099 370.361 32.8929C370.361 32.7191 370.448 32.6322 370.535 32.6322Z" fill="#FDFDFD"/>
<path d="M393.743 32.7191C393.83 32.7191 393.83 32.806 393.83 32.8929C393.83 32.9799 393.743 33.0668 393.569 33.1537C391.309 34.2837 388.18 35.6745 384.355 37.326C383.66 37.6737 382.877 37.9345 382.182 38.2822C381.747 38.456 381.313 38.7168 380.791 39.0645C380.27 39.4122 379.835 39.6729 379.487 39.9337C379.14 40.1945 378.879 40.3683 378.705 40.4552C377.401 41.5852 376.097 42.6283 374.88 43.5845C373.664 44.5406 372.62 45.0622 371.751 45.4099C371.664 45.4099 371.577 45.4968 371.491 45.4968C371.143 45.4968 370.969 45.4099 370.882 45.236C370.795 45.0622 370.795 44.8014 370.882 44.6275C371.23 43.9322 371.838 43.1499 372.881 42.4545C373.924 41.7591 375.054 40.9768 376.445 40.2814C376.88 40.0206 377.314 39.7599 377.836 39.3252C378.357 38.8906 378.879 38.5429 379.314 38.1952C379.748 37.8475 380.009 37.5868 380.096 37.4998C381.661 35.8483 383.138 34.2837 384.268 32.806C385.398 31.3283 386.18 30.1114 386.441 29.1552C386.702 28.1991 386.18 27.8514 384.877 27.9383C383.225 28.1991 381.487 28.9814 379.748 30.1983C378.01 31.4152 376.271 33.0668 374.533 34.8922C372.794 36.7175 371.23 38.8037 369.665 41.0637C368.1 43.3237 366.71 45.4099 365.406 47.5829C365.319 47.7568 365.145 48.0176 364.884 48.5391C364.624 49.0606 364.363 49.5822 364.102 50.1037C363.841 50.6252 363.667 51.0598 363.58 51.3206C363.494 51.4945 363.407 51.7552 363.32 51.9291C363.146 52.2768 363.059 52.6245 362.885 52.9722C362.624 53.7545 362.277 54.6237 361.842 55.5799C361.407 56.8837 360.886 58.1006 360.364 59.4045C359.843 60.7083 359.321 61.7514 358.887 62.6206C358.452 63.4898 357.93 63.9245 357.583 63.9245C357.409 63.9245 357.322 63.8375 357.235 63.6637C357.148 63.4899 357.148 63.316 357.235 63.1422C357.322 62.9683 357.322 62.8814 357.409 62.7945C357.409 62.7075 357.409 62.7075 357.496 62.6206C358.278 60.2737 359.321 57.8398 360.538 55.2322C360.886 54.3629 361.234 53.5806 361.581 52.7114C362.798 49.5822 364.102 46.4529 365.493 43.4106C366.101 42.1068 366.71 40.716 367.231 39.4991C368.796 35.9352 370.447 32.5452 372.186 29.1552C372.273 29.0683 372.36 28.9814 372.534 28.9814C372.707 28.9814 372.794 28.9814 372.881 29.0683C372.968 29.1552 372.968 29.2422 372.968 29.416C372.968 29.416 372.968 29.5029 372.881 29.5029C371.404 32.7191 370.013 36.0222 368.622 39.3252C368.014 40.8029 367.405 42.1937 366.797 43.6714C366.797 43.7583 366.797 43.7583 366.71 43.8452C366.71 43.8452 366.71 43.8452 366.71 43.9322C366.623 44.106 366.623 44.2799 366.71 44.2799C366.797 44.2799 366.884 44.1929 367.057 44.0191C368.448 41.9329 369.926 39.9337 371.491 37.8475C373.055 35.7614 374.707 33.936 376.445 32.2845C378.184 30.6329 379.835 29.2422 381.487 28.286C383.138 27.3299 384.703 26.8952 386.18 26.8952C387.397 27.0691 388.093 27.5906 388.093 28.5468C388.093 29.5029 387.745 30.546 387.05 31.7629C386.354 32.9799 385.398 34.1968 384.355 35.2399C384.007 35.6745 383.399 36.2829 382.53 37.1522C382.356 37.326 382.269 37.4998 382.269 37.5868C382.269 37.6737 382.443 37.6737 382.617 37.5868C385.659 36.4568 388.527 35.2399 391.135 34.1099L393.395 33.0668C393.569 32.6322 393.656 32.6322 393.743 32.7191ZM375.837 41.3245C375.924 41.2375 375.924 41.2376 375.924 41.1506C375.924 41.0637 375.924 41.0637 375.924 41.0637C375.924 41.0637 375.75 41.0637 375.663 41.1506C375.141 41.4114 374.794 41.5852 374.533 41.7591C373.403 42.5414 372.534 43.3237 371.838 44.1929C371.751 44.2799 371.838 44.3668 371.925 44.3668C372.012 44.3668 372.099 44.3668 372.273 44.2799C372.447 44.1929 372.534 44.1929 372.621 44.106C373.229 43.5845 374.359 42.6283 375.837 41.3245Z" fill="#FDFDFD"/>
<path d="M404.085 33.1537C403.65 33.4144 403.302 33.6752 402.955 33.8491C402.955 33.8491 402.868 33.8491 402.868 33.936C402.694 34.0229 402.52 34.1098 402.433 34.1968C402.086 34.3706 401.825 34.5444 401.477 34.7183C400.782 35.1529 400.086 35.5006 399.391 35.7614C398.348 36.196 397.479 36.4568 396.696 36.5437C396.522 36.5437 396.349 36.6306 396.175 36.6306C396.001 36.6306 395.74 36.6306 395.566 36.5437C394.523 36.3698 393.828 36.0221 393.48 35.5006C393.133 34.9791 392.959 34.3706 393.046 33.7621C393.133 33.1537 393.306 32.6321 393.48 32.2844C394.002 31.5891 394.523 31.0675 395.219 30.7198C395.914 30.3721 396.522 30.2852 397.131 30.2852C397.739 30.2852 398.087 30.4591 398.348 30.7198C398.435 31.0675 398.174 31.4152 397.479 31.7629C396.783 32.1106 395.827 32.3714 394.61 32.6321C394.263 32.9798 394.089 33.4145 394.089 33.936C394.089 33.936 394.089 34.0229 394.089 34.1098V34.1968C394.089 34.2837 394.089 34.2837 394.089 34.3706V34.4575C394.262 34.9791 394.523 35.4137 395.132 35.6745C395.74 35.9352 396.436 35.9352 397.479 35.6745C397.652 35.5875 397.826 35.5875 398 35.5006C398 35.5006 398 35.5006 398.087 35.5006C398.956 35.1529 399.826 34.8052 400.608 34.3706C401.39 33.936 402.433 33.3275 403.563 32.6321C403.563 32.6321 403.65 32.6321 403.65 32.5452C403.737 32.4583 403.824 32.4583 403.998 32.5452C404.172 32.6321 404.172 32.6321 404.172 32.7191C404.172 32.806 404.259 33.0668 404.085 33.1537ZM395.392 32.1975C395.306 32.1975 395.306 32.2844 395.219 32.3714C395.219 32.3714 395.132 32.3714 395.132 32.4583C396.349 32.1106 397.131 31.8498 397.566 31.5891C398 31.3283 398.087 31.1545 398 31.1545C397.913 31.1545 397.566 31.1545 397.044 31.3283C396.522 31.5021 396.001 31.7629 395.392 32.1975Z" fill="#FDFDFD"/>
<path d="M412.519 30.6329C412.692 30.7198 412.779 30.8068 412.779 30.8937C412.779 30.9806 412.779 31.1545 412.692 31.2414C412.605 31.4152 412.519 31.5022 412.345 31.5891C412.171 31.676 411.997 31.676 411.823 31.5891C411.128 31.3283 410.259 31.3283 409.389 31.5021C408.52 31.676 407.651 32.1106 406.782 32.806C406.434 33.0668 406.086 33.5014 405.478 34.0229C405.13 34.3706 404.782 34.8052 404.609 35.1529C404.435 35.5006 404.261 35.9352 404.087 36.2829C403.913 36.8045 403.652 37.1521 403.479 37.4998C403.305 37.6737 403.218 37.8475 403.044 37.8475C402.87 37.8475 402.783 37.8475 402.696 37.8475H402.609C402.088 37.8475 402.088 37.1521 402.696 35.7614C403.044 34.8052 403.392 33.8491 403.739 32.8929C403.739 32.806 403.826 32.7191 403.826 32.5452C403.826 32.5452 403.826 32.5452 403.826 32.4583C403.826 32.4583 403.913 32.3714 403.913 32.2845C404 32.1106 404.087 31.9368 404.348 31.676C404.696 31.3283 405.043 31.1545 405.391 31.2414C405.739 31.3283 405.825 31.5022 405.739 32.0237C405.739 32.1106 405.652 32.2845 405.652 32.3714C405.652 32.3714 405.652 32.3714 405.652 32.4583C405.652 32.4583 405.652 32.4583 405.652 32.5452C405.652 32.6321 405.565 32.7191 405.565 32.806C405.565 32.8929 405.478 32.9798 405.478 33.0668C405.478 33.1537 405.478 33.2406 405.478 33.2406C405.478 33.2406 405.652 33.2406 405.825 33.0668C406.608 32.2845 407.303 31.676 407.999 31.3283C408.694 30.9806 409.389 30.6329 410.172 30.3721C410.954 30.1114 411.736 30.3721 412.519 30.6329Z" fill="#FDFDFD"/>
<path d="M444.942 11.7706C445.029 11.7706 445.029 11.8575 445.116 11.8575C445.203 11.8575 445.116 12.0314 445.116 12.0314C445.116 12.0314 445.029 12.1183 444.855 12.1183C443.899 12.2052 442.943 12.2052 441.987 12.2921C436.685 12.6398 431.382 13.0745 425.993 13.5091C425.645 13.596 425.298 13.6829 425.124 13.8568C424.95 14.0306 424.776 14.2045 424.689 14.3783C420.43 23.1575 416.779 31.5891 413.824 39.6729C413.302 41.1506 412.694 42.8021 412.085 44.5406C411.477 46.2791 410.955 48.0175 410.434 49.756C409.912 51.4945 409.565 52.8852 409.391 54.1021C409.217 55.3191 409.217 56.1014 409.565 56.536C410.347 57.0575 411.477 56.8837 413.042 56.0145C414.606 55.1452 416.258 53.8414 418.17 52.016C420.082 50.1906 422.082 48.1914 424.168 45.9314C426.254 43.6714 428.166 41.3245 429.992 39.0645C431.817 36.8045 433.469 34.6314 434.772 32.806C434.859 32.7191 434.946 32.7191 434.946 32.7191C434.946 32.7191 435.12 32.7191 435.12 32.806C435.12 32.8929 435.12 32.9798 435.12 33.0668C433.469 35.5875 431.556 38.1952 429.383 40.8898C427.21 43.5845 425.124 46.1921 422.864 48.626C420.604 51.0598 418.518 53.2329 416.432 54.9714C414.345 56.7098 412.607 57.9268 411.129 58.6222C409.652 59.3175 408.522 59.1437 407.826 58.2744C407.131 57.4052 407.044 55.4929 407.479 52.5375C407.826 51.1468 408.174 49.756 408.609 48.3652C408.609 48.2783 408.695 48.1045 408.695 48.0175C409.217 46.4529 409.739 44.9752 410.347 43.4106C412.259 38.3691 414.172 33.5014 416.258 28.7206C418.344 23.9398 420.43 19.246 422.864 14.726C422.951 14.4652 422.951 14.2914 422.864 14.2045C422.777 14.1175 422.603 14.0306 422.429 14.1175C419.039 14.4652 415.736 14.8129 412.346 15.2475C412.172 15.2475 412.085 15.2475 411.999 15.1606C411.912 15.0737 411.999 14.9868 411.999 14.9868C411.999 14.9868 412.085 14.8998 412.172 14.8129C415.475 14.2045 418.865 13.6829 422.342 13.2483C422.951 13.1614 423.385 12.9875 423.646 12.7268C423.907 12.466 424.168 12.2052 424.255 12.0314C425.645 9.4237 427.21 6.90293 428.862 4.38216C428.949 4.20831 429.122 4.20831 429.296 4.20831C429.47 4.20831 429.644 4.29523 429.731 4.38216C429.818 4.46908 429.818 4.64292 429.731 4.90369C428.427 7.25061 427.123 9.68446 425.819 12.2052C425.645 12.6398 425.906 12.9006 426.515 12.8137C432.773 12.0314 438.858 11.6837 444.942 11.7706Z" fill="#FDFDFD"/>
<path d="M478.579 28.286C478.753 28.286 478.927 28.286 479.014 28.3729C479.101 28.4599 479.101 28.6337 478.927 28.8075C478.753 28.9814 478.579 29.1552 478.145 29.2422C477.102 29.5029 475.537 30.0245 473.538 30.8937C473.19 31.0676 472.843 31.3283 472.582 31.676C472.321 32.0237 472.147 32.2845 472.06 32.4583C471.452 34.3706 470.843 36.196 470.235 38.1083C469.539 40.2814 469.105 41.9329 468.757 43.1499C468.409 44.3668 468.149 45.5837 467.888 46.8875C467.627 48.0175 467.279 49.5822 466.845 51.5814C466.845 51.6683 466.671 51.7552 466.584 51.8422C466.497 51.9291 466.323 51.9291 466.149 51.9291C465.976 51.9291 465.976 51.7552 465.976 51.5814C466.41 48.0176 466.845 45.1491 467.453 42.8022C468.062 40.4552 468.844 37.6737 469.887 34.2837C470.061 33.8491 470.148 33.3276 470.322 32.8929C470.409 32.7191 470.322 32.6322 470.235 32.5452C470.148 32.4583 469.974 32.4583 469.887 32.5452C469.8 32.6322 469.626 32.6322 469.539 32.6322C466.671 33.8491 463.107 35.3268 458.848 37.2391C458.326 37.4999 457.805 37.8475 457.457 38.1952C457.109 38.5429 456.849 38.8037 456.762 38.9776C456.066 40.1076 455.371 41.2375 454.676 42.2806C452.589 45.6706 450.764 48.5391 449.199 50.886C447.635 53.2329 446.679 54.3629 446.157 54.4499C445.636 54.4499 445.462 54.276 445.549 54.0152C445.636 53.7545 445.809 53.4068 446.07 52.9722C446.07 52.9722 446.07 52.9722 446.07 52.8852C446.331 52.5376 446.766 51.7552 447.374 50.5383C448.069 49.2345 448.939 47.8437 449.808 46.2791C450.677 44.7145 451.373 43.5845 451.981 42.7152C452.503 41.9329 453.024 41.0637 453.546 40.1945C453.546 40.1945 453.546 40.1075 453.633 40.1075C453.806 39.8468 453.719 39.6729 453.633 39.6729C453.546 39.6729 453.285 39.6729 453.024 39.8468C451.546 40.5422 449.982 41.1506 448.417 41.9329C448.243 42.0199 448.069 42.0199 447.983 41.9329C447.896 41.846 447.809 41.7591 447.809 41.6722C447.809 41.5852 447.896 41.4983 447.983 41.4114C449.199 40.8029 450.677 40.1945 452.416 39.4122C452.763 39.2383 453.111 39.0645 453.459 38.9776C453.893 38.7168 454.328 38.456 454.676 38.1952C455.023 37.9345 455.284 37.6737 455.371 37.4999C456.501 35.5006 457.718 33.5883 458.848 31.5891C461.108 27.6776 463.455 23.766 465.976 19.8545C466.149 19.6806 466.236 19.5937 466.41 19.5937C466.584 19.5937 466.671 19.6806 466.758 19.7676C466.845 19.8545 466.845 20.0283 466.758 20.1152C464.15 25.3306 461.369 30.4591 458.413 35.4137C458.413 35.4137 458.413 35.4137 458.413 35.5006C462.586 28.8945 467.019 22.8099 471.539 17.0729C474.059 14.0306 475.885 12.0314 477.015 11.0752C478.145 10.1191 478.84 9.94525 478.927 10.6406C479.014 11.336 478.84 12.5529 478.319 14.3783C477.797 16.2037 477.015 18.4637 476.146 20.9845C475.537 22.7229 474.929 24.3745 474.407 26.1129C474.059 27.156 473.712 28.1991 473.364 29.3291C473.364 29.416 473.277 29.5029 473.277 29.6768C473.277 29.7637 473.19 29.8506 473.277 29.9375C473.364 30.0245 473.364 30.0245 473.451 30.0245C473.538 30.0245 473.538 30.0245 473.625 30.0245C473.712 30.0245 473.799 30.0245 473.799 30.0245H473.886C475.537 29.2422 477.189 28.7206 478.579 28.286ZM455.719 39.2383C454.936 40.2814 453.806 42.0199 452.329 44.4537C450.851 46.8875 449.373 49.0606 448.069 51.3206C447.983 51.4075 447.983 51.4945 447.983 51.5814C447.983 51.6683 448.069 51.5814 448.156 51.4075C448.939 50.1906 449.808 48.7999 450.764 47.3222C451.72 45.8445 452.589 44.4537 453.198 43.4106C453.98 42.0199 454.849 40.6291 455.719 39.2383ZM473.277 23.8529C473.799 22.5491 474.233 21.2452 474.668 20.0283C475.103 18.8114 475.624 17.3337 476.233 15.5083C476.319 15.1606 476.493 14.8129 476.667 14.2914C476.841 13.7699 476.928 13.3352 477.015 12.9876C477.102 12.6399 477.015 12.3791 476.841 12.3791C476.493 12.3791 475.798 13.0745 474.668 14.2914C471.799 17.5945 468.757 21.3322 465.715 25.5045C463.455 28.5468 461.195 31.9368 458.848 35.7614C458.674 36.0222 458.674 36.196 458.761 36.2829C458.848 36.3699 459.022 36.3699 459.196 36.2829C462.759 34.6314 466.236 33.1537 469.626 31.7629C469.974 31.5891 470.322 31.4152 470.583 31.1545C470.843 30.8937 471.017 30.7199 471.104 30.4591C471.713 28.286 472.495 26.1129 473.277 23.8529Z" fill="#FDFDFD"/>
<path d="M491.964 32.6322C492.051 32.6322 492.051 32.7191 492.138 32.7191C492.225 32.7191 492.138 32.8929 492.051 32.8929C491.355 33.5014 490.573 34.1098 489.704 34.7183C488.835 35.3268 487.878 35.8483 486.922 36.196C485.966 36.5437 485.01 36.8045 484.054 36.8045C483.358 36.8045 483.011 36.6306 482.837 36.2829C482.663 35.9352 482.663 35.5875 482.837 35.066C483.011 34.5445 483.185 34.1098 483.358 33.6752C483.532 33.3275 483.619 32.9798 483.706 32.7191C483.793 32.4583 483.793 32.1975 483.793 32.0237C483.532 31.7629 483.185 31.8498 482.75 32.3714C482.315 32.8929 481.794 33.5014 481.272 34.3706C480.664 35.2398 480.142 36.0222 479.534 36.7175C478.925 37.4129 478.404 37.6737 477.969 37.4998C477.708 37.4129 477.621 37.2391 477.708 36.9783C477.795 36.7175 477.882 36.3698 478.056 36.0221C478.317 35.4137 478.491 34.9791 478.665 34.5445C478.925 33.7622 479.36 32.9798 479.795 32.1106C479.881 32.0237 479.968 31.9368 480.142 31.9368C480.316 31.9368 480.49 31.9368 480.664 32.0237C480.838 32.1106 480.925 32.1975 480.925 32.4583C480.751 32.9799 480.577 33.5014 480.403 33.936C480.316 34.2837 480.229 34.6314 480.055 34.8921V34.9791C480.055 34.9791 480.055 34.9791 480.055 35.066C480.055 35.1529 480.055 35.066 480.055 35.1529C480.055 35.1529 480.055 35.1529 480.142 35.066C480.229 34.9791 480.229 34.9791 480.229 34.8921C480.577 34.3706 481.011 33.7621 481.446 33.1537C481.881 32.5452 482.315 32.0237 482.75 31.5891C482.924 31.4152 483.185 31.2414 483.532 31.1545C483.88 31.0675 484.228 31.0675 484.488 31.3283C484.488 31.3283 484.575 31.4152 484.575 31.5022C484.662 31.5891 484.662 31.676 484.749 31.7629V31.8498C484.836 32.1975 484.836 32.5452 484.749 32.8929C484.662 33.2406 484.488 33.5883 484.315 33.936C484.141 34.3706 483.967 34.7183 483.88 35.066C483.793 35.4137 483.88 35.6745 484.054 35.9352C484.575 36.2829 485.532 36.2829 486.922 35.6745C488.313 35.066 489.878 34.1968 491.442 32.806C491.79 32.7191 491.877 32.6322 491.964 32.6322Z" fill="#FDFDFD"/>
<path d="M516.218 33.3276C512.828 35.5876 509.351 38.1083 505.961 40.8899C505.179 43.9322 503.875 46.8006 502.224 49.6691C500.572 52.5376 498.747 55.0583 496.835 57.4052C494.922 59.7522 493.097 61.6645 491.445 63.1422C491.011 63.4899 490.402 64.0114 489.62 64.7068C488.838 65.4022 487.968 66.0106 487.012 66.5322C486.056 67.0537 485.187 67.4883 484.318 67.6622C483.448 67.836 482.753 67.5752 482.231 66.9668C481.71 66.1845 481.971 64.7937 483.014 63.0552C484.057 61.3168 485.708 59.1437 487.795 56.7968C489.881 54.4499 492.401 51.9291 495.183 49.3214C497.965 46.7137 500.746 44.2799 503.701 41.846C504.571 38.9776 504.918 35.9353 504.918 32.6322C504.918 31.5891 504.484 30.9806 503.788 30.8068H503.701C503.701 30.8068 503.701 30.8068 503.615 30.8068C503.267 30.8068 502.832 30.9806 502.485 31.1545C502.137 31.3283 501.702 31.5022 501.441 31.7629C501.441 31.7629 501.441 31.7629 501.355 31.8499C501.355 31.8499 501.355 31.8499 501.268 31.9368C501.181 32.0237 501.007 32.1106 500.92 32.1976C500.572 32.5453 500.138 32.8929 499.703 33.3276C498.486 34.4576 497.269 35.5006 495.878 36.6306C494.488 37.7606 493.271 38.6299 492.054 39.1514C490.837 39.6729 489.881 39.7599 489.185 39.2383C488.49 38.6299 488.316 37.7606 488.664 36.7176C489.011 35.6745 489.707 34.7183 490.663 33.7622C491.619 32.806 492.749 32.1106 493.966 31.676C495.183 31.2414 496.313 31.3283 497.356 32.0237C497.617 32.2845 497.617 32.5453 497.53 32.806C497.443 33.0668 497.182 33.3276 496.835 33.5883C496.487 33.8491 496.139 33.7622 495.878 33.6753C494.835 34.0229 493.792 34.4576 492.749 35.1529C491.706 35.8483 491.011 36.5437 490.489 37.1522C489.968 37.7606 490.055 38.1953 490.576 38.456C491.445 38.456 492.575 38.0214 493.792 37.1522C495.009 36.2829 496.313 35.1529 497.704 33.936C498.399 33.3276 499.095 32.7191 499.79 32.1976C499.877 32.1106 499.964 32.0237 500.051 32.0237C500.051 32.0237 500.138 31.9368 500.225 31.9368L500.311 31.8499C500.92 31.3283 501.615 30.8068 502.398 30.3722C503.18 29.9376 503.962 29.6768 504.658 29.7637C504.658 29.7637 504.658 29.7637 504.745 29.7637C505.092 29.8506 505.44 30.1114 505.701 30.4591C505.701 30.4591 505.701 30.546 505.788 30.546C505.961 30.8068 506.135 31.1545 506.222 31.5022C506.396 32.0237 506.483 32.6322 506.57 33.2406C506.657 33.8491 506.657 34.4576 506.657 34.9791C506.657 34.9791 506.657 34.9791 506.657 35.066C506.657 35.066 506.657 35.066 506.657 35.1529C506.657 36.7176 506.57 38.3691 506.222 40.0206C509.96 37.0653 513.263 34.7183 516.045 32.9799C516.218 32.8929 516.305 32.8929 516.392 32.9799C516.479 33.0668 516.479 33.1537 516.479 33.2406C516.479 33.3276 516.305 33.2406 516.218 33.3276ZM494.053 57.753C496.052 55.5799 497.791 53.3199 499.442 50.886C501.094 48.4522 502.398 45.8445 503.354 43.0629C499.442 46.366 495.965 49.5822 492.836 52.7114C489.707 55.8406 487.273 58.6222 485.535 60.9691C483.796 63.316 483.014 64.8806 483.275 65.7499C483.535 66.2714 484.057 66.4452 484.752 66.1845C485.448 65.9237 486.23 65.4022 487.186 64.7068C488.142 64.0114 489.011 63.1422 489.968 62.186C490.924 61.2299 491.706 60.4476 492.401 59.6652C493.097 58.8829 493.618 58.2745 493.966 57.9268C493.966 57.8399 494.053 57.753 494.053 57.753Z" fill="#FDFDFD"/>
<path d="M526.735 33.1537C526.301 33.4144 525.953 33.6752 525.605 33.8491C525.605 33.8491 525.518 33.8491 525.518 33.936C525.344 34.0229 525.171 34.1098 525.084 34.1968C524.736 34.3706 524.475 34.5444 524.128 34.7183C523.432 35.1529 522.737 35.5006 522.041 35.7614C520.998 36.196 520.129 36.4568 519.347 36.5437C519.173 36.5437 518.999 36.6306 518.825 36.6306C518.651 36.6306 518.391 36.6306 518.217 36.5437C517.174 36.3698 516.478 36.0221 516.131 35.5006C515.783 34.9791 515.609 34.3706 515.696 33.7621C515.783 33.1537 515.957 32.6321 516.131 32.2844C516.652 31.5891 517.174 31.0675 517.869 30.7198C518.564 30.3721 519.173 30.2852 519.781 30.2852C520.39 30.2852 520.738 30.4591 520.998 30.7198C521.085 31.0675 520.824 31.4152 520.129 31.7629C519.434 32.1106 518.477 32.3714 517.261 32.6321C516.913 32.9798 516.739 33.4145 516.739 33.936C516.739 33.936 516.739 34.0229 516.739 34.1098V34.1968C516.739 34.2837 516.739 34.2837 516.739 34.3706V34.4575C516.913 34.9791 517.174 35.4137 517.782 35.6745C518.391 35.9352 519.086 35.9352 520.129 35.6745C520.303 35.5875 520.477 35.5875 520.651 35.5006C520.651 35.5006 520.651 35.5006 520.737 35.5006C521.607 35.1529 522.476 34.8052 523.258 34.3706C524.041 33.936 525.084 33.3275 526.214 32.6321C526.214 32.6321 526.301 32.6321 526.301 32.5452C526.388 32.4583 526.474 32.4583 526.648 32.5452C526.822 32.6321 526.822 32.6321 526.822 32.7191C526.822 32.806 526.822 33.0668 526.735 33.1537ZM517.956 32.1975C517.869 32.1975 517.869 32.2844 517.782 32.3714C517.782 32.3714 517.695 32.3714 517.695 32.4583C518.912 32.1106 519.694 31.8498 520.129 31.5891C520.564 31.3283 520.651 31.1545 520.564 31.1545C520.477 31.1545 520.129 31.1545 519.608 31.3283C519.086 31.5021 518.564 31.7629 517.956 32.1975Z" fill="#FDFDFD"/>
<path d="M546.121 32.7191C546.208 32.6322 546.295 32.6322 546.382 32.6322C546.468 32.6322 546.555 32.7191 546.642 32.806C546.729 32.8929 546.642 32.9799 546.555 33.1537C544.73 35.3268 542.992 37.326 541.253 39.2383C539.515 41.1506 537.776 43.0629 535.951 44.8883C530.909 49.9299 527.172 52.7983 524.651 53.6676C522.13 54.5368 521 53.4937 521 50.7122C521 47.9306 522.217 43.4106 524.651 37.2391C527.172 30.8937 529.518 25.1568 531.865 20.1152C534.212 15.0737 536.733 9.94525 539.688 4.72987C539.862 4.4691 540.036 4.38218 540.297 4.38218C540.558 4.38218 540.645 4.4691 540.818 4.72987C540.992 4.99064 540.905 5.16449 540.732 5.51218C537.515 11.423 534.821 16.8991 532.648 21.8537C530.475 26.8083 528.041 33.2406 525.172 40.8899C525.085 41.1506 524.998 41.4114 524.825 41.6722C524.738 41.9329 524.564 42.3676 524.303 42.976C524.042 43.5845 523.868 44.2799 523.695 45.0622C523.521 45.8445 523.26 46.7137 523.086 47.496C522.912 48.2783 522.825 49.1476 522.738 49.8429C522.652 50.5383 522.738 51.1468 522.912 51.5814C523.086 52.016 523.347 52.2768 523.782 52.2768C524.651 52.2768 525.694 51.9291 526.911 51.2337C528.128 50.5383 529.432 49.5822 530.822 48.3652C532.213 47.1483 533.691 45.8445 535.169 44.4537C536.646 43.0629 538.037 41.5852 539.428 40.1076C540.818 38.6299 542.122 37.2391 543.252 35.9353C544.382 34.6314 545.252 33.6752 546.121 32.7191Z" fill="#FDFDFD"/>
<path d="M565.765 32.7191C565.852 32.6322 565.939 32.6322 566.026 32.6322C566.113 32.6322 566.2 32.7191 566.287 32.806C566.374 32.8929 566.287 32.9799 566.2 33.1537C564.375 35.3268 562.636 37.326 560.898 39.2383C559.159 41.1506 557.421 43.0629 555.595 44.8883C550.554 49.9299 546.816 52.7983 544.295 53.6676C541.775 54.5368 540.645 53.4937 540.645 50.7122C540.645 47.9306 541.861 43.4106 544.295 37.2391C546.816 30.8937 549.163 25.1568 551.51 20.1152C553.857 15.0737 556.378 9.94525 559.333 4.72987C559.507 4.4691 559.681 4.38218 559.941 4.38218C560.202 4.38218 560.289 4.4691 560.463 4.72987C560.637 4.99064 560.55 5.16449 560.376 5.51218C557.16 11.423 554.465 16.8991 552.292 21.8537C550.119 26.8083 547.685 33.2406 544.817 40.8899C544.73 41.1506 544.643 41.4114 544.469 41.6722C544.382 41.9329 544.208 42.3676 543.948 42.976C543.687 43.5845 543.513 44.2799 543.339 45.0622C543.165 45.8445 542.904 46.7137 542.731 47.496C542.557 48.2783 542.47 49.1476 542.383 49.8429C542.296 50.5383 542.383 51.1468 542.557 51.5814C542.731 52.016 542.991 52.2768 543.426 52.2768C544.295 52.2768 545.338 51.9291 546.555 51.2337C547.772 50.5383 549.076 49.5822 550.467 48.3652C551.858 47.1483 553.335 45.8445 554.813 44.4537C556.291 43.0629 557.681 41.5852 559.072 40.1076C560.463 38.6299 561.767 37.2391 562.897 35.9353C564.027 34.6314 564.983 33.6752 565.765 32.7191Z" fill="#FDFDFD"/>
<path d="M581.583 32.7191C581.669 32.7191 581.669 32.6322 581.756 32.6322C581.843 32.6322 581.843 32.6322 581.843 32.6322C581.843 32.6322 581.843 32.6322 581.93 32.7191C582.017 32.806 581.93 32.806 581.93 32.806V32.8929C581.061 33.5883 580.453 34.0229 579.931 34.3706C579.409 34.7183 578.975 35.066 578.627 35.2399C578.28 35.4137 577.932 35.6745 577.584 35.9353C577.41 36.0222 577.15 36.196 576.889 36.3699C575.411 37.2391 574.368 37.7606 573.586 37.7606C572.803 37.7606 572.369 37.4999 572.108 36.8914C571.847 36.2829 571.847 35.5876 572.021 34.7183C572.195 33.8491 572.369 32.9799 572.716 32.1106C572.803 31.9368 572.803 31.8499 572.716 31.7629C572.629 31.676 572.543 31.7629 572.369 31.8499C571.76 32.1976 571.239 32.6322 570.717 33.1537C570.63 33.2406 570.456 33.4145 570.37 33.5014C569.413 34.3706 568.457 35.2399 567.501 35.9353C566.545 36.6306 565.763 37.2391 565.067 37.4999C564.372 37.7606 563.85 37.7606 563.589 37.326C563.242 36.7176 563.329 36.0222 563.85 35.066C564.372 34.1099 564.98 33.2406 565.936 32.3714C566.893 31.5022 567.762 30.7199 568.631 30.1114C569.5 29.5029 570.369 29.2422 570.978 29.2422C571.586 29.2422 571.847 29.6768 571.76 30.6329C571.76 30.7199 571.76 30.7199 571.76 30.8068C571.76 30.8937 571.76 30.8937 571.847 30.8937C571.934 30.8937 571.934 30.8937 572.021 30.8068C572.543 30.2852 573.064 30.1114 573.499 30.1114C573.846 30.1983 574.02 30.546 573.933 31.0676C573.846 31.5891 573.759 32.2845 573.586 33.0668C573.412 33.7622 573.325 34.4576 573.238 35.066C573.151 35.6745 573.238 36.1091 573.412 36.4568C573.759 36.8045 574.194 36.8045 574.889 36.6306C575.585 36.4568 576.367 36.0222 577.149 35.5876C577.932 35.1529 578.801 34.5445 579.496 34.0229C580.192 33.5014 580.8 33.0668 581.235 32.7191C581.409 32.8929 581.583 32.7191 581.583 32.7191ZM564.806 36.8045C564.893 36.9783 565.328 36.8045 565.936 36.3699C566.545 35.9353 567.327 35.3268 568.109 34.6314C568.892 33.936 569.761 33.2406 570.456 32.5452C570.543 32.4583 570.63 32.3714 570.63 32.2845C570.63 32.1976 570.717 32.0237 570.63 31.9368C570.456 31.5891 570.022 31.5022 569.413 31.7629C568.805 32.0237 568.196 32.3714 567.501 32.9799C566.806 33.5883 566.284 34.0229 565.936 34.4576C565.415 35.1529 565.067 35.6745 564.893 36.1091C564.719 36.5437 564.719 36.7176 564.806 36.8045Z" fill="#FDFDFD"/>
<path d="M629.827 32.5452C629.914 32.5452 630.001 32.6322 630.001 32.806C630.001 32.9798 629.914 33.0668 629.653 33.2406C626.35 35.3268 622.7 37.4129 618.614 39.586C614.529 41.7591 611.226 43.3237 608.531 44.3668C606.097 45.3229 604.098 46.0183 602.359 46.5399C601.838 46.7137 601.403 46.9745 601.056 47.3222C600.708 47.6698 600.447 48.0175 600.273 48.2783C598.361 52.6245 596.362 56.7968 594.363 60.9691C594.102 61.3168 593.841 61.5775 593.493 61.5775C593.146 61.5775 592.885 61.4906 592.624 61.3168C592.363 61.1429 592.363 60.7952 592.537 60.4475C594.363 56.3621 596.101 52.3637 597.753 48.5391C597.839 48.2783 597.839 48.0175 597.753 47.9306C597.666 47.8437 597.492 47.6699 597.144 47.6699C594.971 47.7568 594.276 46.8875 595.058 44.9752C595.84 43.0629 597.84 40.3683 601.056 36.8045C601.751 36.0222 602.359 35.2398 603.055 34.4575C603.316 34.1098 603.663 33.6752 604.098 33.1537C604.533 32.6322 604.88 32.0237 605.228 31.5022C605.576 30.9806 605.836 30.546 605.923 30.2852C610.443 20.4629 615.398 10.4668 620.613 0.383693C620.7 0.209847 620.874 0.122929 621.048 0.0360064C621.222 -0.0509167 621.309 0.0359984 621.396 0.122921C621.483 0.209845 621.483 0.383696 621.396 0.644465C617.397 9.24985 613.486 17.8552 609.661 26.7214C609.487 27.156 609.4 27.5037 609.487 27.6775C609.574 27.8514 609.661 27.8514 609.922 27.6775L610.009 27.5906C612.356 25.5045 614.789 23.4183 617.223 21.3322C620.353 18.7245 623.656 15.856 626.959 12.8137C627.133 12.6398 627.393 12.5529 627.567 12.466C627.741 12.3791 627.915 12.466 628.002 12.5529C628.089 12.6398 628.002 12.9006 627.828 13.1614C625.916 15.2475 623.916 17.0729 622.004 18.8114C620.092 20.5498 618.093 22.1145 616.18 23.6791C614.007 25.5045 611.747 27.3298 609.574 29.2422C608.966 29.8506 608.357 30.6329 607.836 31.4152C607.314 32.1975 606.879 32.8929 606.706 33.2406C605.054 37.1522 603.316 40.9768 601.577 44.8014C601.49 45.0622 601.403 45.236 601.49 45.3229C601.577 45.4098 601.577 45.4968 601.664 45.5837C601.751 45.6706 601.838 45.5837 602.012 45.5837C606.01 44.3668 610.617 42.4545 615.746 39.9337C620.874 37.4129 625.394 34.9791 629.219 32.6322C629.566 32.5452 629.74 32.5452 629.827 32.5452ZM603.142 36.6306C603.316 36.2829 603.316 36.1091 603.316 36.0222C603.316 35.9352 603.142 35.9352 603.055 36.1091C602.968 36.196 602.881 36.2829 602.794 36.4568C602.62 36.6306 602.533 36.8045 602.359 36.9783C602.273 37.0652 602.099 37.2391 601.838 37.4998C601.316 38.0214 600.708 38.7168 600.013 39.6729C599.317 40.6291 598.535 41.4983 597.839 42.4545C597.144 43.4106 596.709 44.2799 596.449 44.9752C596.188 45.6706 596.362 46.1922 596.796 46.366C597.057 46.4529 597.405 46.4529 597.839 46.5399C598.1 46.5399 598.361 46.366 598.709 46.1052C599.056 45.8445 599.23 45.5837 599.317 45.236C600.621 42.2806 601.925 39.4122 603.142 36.6306ZM603.055 36.8045C603.055 36.8914 603.055 36.8914 603.055 36.8045C603.142 36.7175 603.142 36.6306 603.142 36.6306C603.142 36.7175 603.055 36.8045 603.055 36.8045Z" fill="#FDFDFD"/>
<path d="M638.169 29.0683C638.343 28.8945 638.517 28.8075 638.778 28.7206C639.038 28.6337 639.299 28.7206 639.473 28.8945C639.647 29.0683 639.734 29.416 639.734 29.9375C639.386 31.1545 638.865 32.5452 638.256 34.1968C637.648 35.8483 636.952 37.4129 636.344 38.8037C636.17 39.2383 635.909 39.4991 635.735 39.4991C635.561 39.4991 635.388 39.4121 635.214 39.2383C635.04 39.0645 635.04 38.8037 635.127 38.5429C635.214 38.1083 635.388 37.6737 635.475 37.2391C636.083 34.9791 636.691 33.2406 637.213 32.0237C637.3 31.676 637.213 31.676 636.865 31.9368C636.778 32.0237 636.691 32.1106 636.691 32.1106C635.822 32.8929 634.779 33.8491 633.649 34.8052C632.519 35.7614 631.476 36.2829 630.607 36.5437C629.564 36.5437 629.042 36.1091 628.955 35.3268C628.868 34.5445 629.042 33.5883 629.477 32.6322C629.911 31.676 630.346 30.7198 630.781 29.9375C630.955 29.6768 631.215 29.5898 631.65 29.5029C632.085 29.416 632.345 29.5898 632.606 29.7637C632.867 29.9375 632.78 30.3721 632.345 31.0675C631.824 31.8498 631.302 32.6321 630.868 33.4145C630.433 34.1968 630.172 34.8052 630.085 35.2398C630.085 35.9352 630.259 36.1091 630.781 35.9352C631.302 35.7614 631.998 35.3268 632.78 34.7183C633.562 34.1098 634.258 33.4145 634.953 32.806C635.648 32.1975 636.083 31.676 636.344 31.4152C636.692 31.0675 637.039 30.6329 637.387 30.1114C637.648 29.7637 637.908 29.416 638.169 29.0683Z" fill="#FDFDFD"/>
<path d="M661.726 32.7191C661.813 32.6322 661.9 32.6322 661.987 32.6322C662.074 32.6322 662.161 32.7191 662.248 32.806C662.335 32.8929 662.248 32.9799 662.161 33.1537C660.336 35.3268 658.597 37.326 656.859 39.2383C655.12 41.1506 653.382 43.0629 651.556 44.8883C646.515 49.9299 642.777 52.7983 640.256 53.6676C637.735 54.5368 636.605 53.4937 636.605 50.7122C636.605 47.9306 637.822 43.4106 640.256 37.2391C642.777 30.8937 645.124 25.1568 647.471 20.1152C649.818 15.0737 652.339 9.94525 655.294 4.72987C655.468 4.4691 655.642 4.38218 655.902 4.38218C656.163 4.38218 656.25 4.4691 656.424 4.72987C656.598 4.99064 656.511 5.16449 656.337 5.51218C653.121 11.423 650.426 16.8991 648.253 21.8537C646.08 26.8083 643.646 33.2406 640.778 40.8899C640.691 41.1506 640.604 41.4114 640.43 41.6722C640.343 41.9329 640.169 42.3676 639.909 42.976C639.648 43.5845 639.474 44.2799 639.3 45.0622C639.126 45.8445 638.865 46.7137 638.692 47.496C638.518 48.2783 638.431 49.1476 638.344 49.8429C638.257 50.5383 638.344 51.1468 638.518 51.5814C638.692 52.016 638.952 52.2768 639.387 52.2768C640.256 52.2768 641.299 51.9291 642.516 51.2337C643.733 50.5383 645.037 49.5822 646.428 48.3652C647.819 47.1483 649.296 45.8445 650.774 44.4537C652.252 43.0629 653.642 41.5852 655.033 40.1076C656.424 38.6299 657.728 37.2391 658.858 35.9353C659.988 34.6314 660.944 33.6752 661.726 32.7191Z" fill="#FDFDFD"/>
<path d="M677.549 32.7191C677.636 32.7191 677.636 32.6322 677.723 32.6322C677.81 32.6322 677.81 32.6322 677.81 32.6322C677.81 32.6322 677.81 32.6322 677.897 32.7191C677.984 32.806 677.897 32.806 677.897 32.806V32.8929C677.028 33.5883 676.419 34.0229 675.898 34.3706C675.376 34.7183 674.942 35.066 674.594 35.2399C674.246 35.4137 673.899 35.6745 673.551 35.9353C673.377 36.0222 673.116 36.196 672.855 36.3699C671.378 37.2391 670.335 37.7606 669.552 37.7606C668.77 37.7606 668.335 37.4999 668.075 36.8914C667.814 36.2829 667.814 35.5876 667.988 34.7183C668.162 33.8491 668.336 32.9799 668.683 32.1106C668.77 31.9368 668.77 31.8499 668.683 31.7629C668.596 31.676 668.509 31.7629 668.336 31.8499C667.727 32.1976 667.205 32.6322 666.684 33.1537C666.597 33.2406 666.423 33.4145 666.336 33.5014C665.38 34.3706 664.424 35.2399 663.468 35.9353C662.512 36.6306 661.729 37.2391 661.034 37.4999C660.339 37.7606 659.817 37.7606 659.556 37.326C659.209 36.7176 659.295 36.0222 659.817 35.066C660.339 34.1099 660.947 33.2406 661.903 32.3714C662.859 31.5022 663.729 30.7199 664.598 30.1114C665.467 29.5029 666.336 29.2422 666.945 29.2422C667.553 29.2422 667.814 29.6768 667.727 30.6329C667.727 30.7199 667.727 30.7199 667.727 30.8068C667.727 30.8937 667.727 30.8937 667.814 30.8937C667.901 30.8937 667.901 30.8937 667.988 30.8068C668.509 30.2852 669.031 30.1114 669.466 30.1114C669.813 30.1983 669.987 30.546 669.9 31.0676C669.813 31.5891 669.726 32.2845 669.552 33.0668C669.379 33.7622 669.292 34.4576 669.205 35.066C669.118 35.6745 669.205 36.1091 669.379 36.4568C669.726 36.8045 670.161 36.8045 670.856 36.6306C671.552 36.4568 672.334 36.0222 673.116 35.5876C673.899 35.1529 674.768 34.5445 675.463 34.0229C676.159 33.5014 676.767 33.0668 677.202 32.7191C677.376 32.8929 677.549 32.7191 677.549 32.7191ZM660.773 36.8045C660.86 36.9783 661.295 36.8045 661.903 36.3699C662.512 35.9353 663.294 35.3268 664.076 34.6314C664.859 33.936 665.728 33.2406 666.423 32.5452C666.51 32.4583 666.597 32.3714 666.597 32.2845C666.597 32.1976 666.684 32.0237 666.597 31.9368C666.423 31.5891 665.989 31.5022 665.38 31.7629C664.772 32.0237 664.163 32.3714 663.468 32.9799C662.772 33.5883 662.251 34.0229 661.903 34.4576C661.382 35.1529 661.034 35.6745 660.86 36.1091C660.686 36.5437 660.686 36.7176 660.773 36.8045Z" fill="#FDFDFD"/>
<path d="M690.149 32.6322C690.236 32.6322 690.236 32.7191 690.323 32.7191C690.41 32.7191 690.323 32.8929 690.236 32.8929C689.541 33.5014 688.759 34.1098 687.889 34.7183C687.02 35.3268 686.064 35.8483 685.108 36.196C684.152 36.5437 683.195 36.8045 682.239 36.8045C681.544 36.8045 681.196 36.6306 681.022 36.2829C680.849 35.9352 680.849 35.5875 681.022 35.066C681.196 34.5445 681.37 34.1098 681.544 33.6752C681.718 33.3275 681.805 32.9798 681.892 32.7191C681.979 32.4583 681.979 32.1975 681.979 32.0237C681.718 31.7629 681.37 31.8498 680.935 32.3714C680.501 32.8929 679.979 33.5014 679.458 34.3706C678.849 35.2398 678.328 36.0222 677.719 36.7175C677.111 37.4129 676.589 37.6737 676.155 37.4998C675.894 37.4129 675.807 37.2391 675.894 36.9783C675.981 36.7175 676.068 36.3698 676.242 36.0221C676.502 35.4137 676.676 34.9791 676.85 34.5445C677.111 33.7622 677.545 32.9798 677.98 32.1106C678.067 32.0237 678.154 31.9368 678.328 31.9368C678.502 31.9368 678.675 31.9368 678.849 32.0237C679.023 32.1106 679.11 32.1975 679.11 32.4583C678.936 32.9799 678.762 33.5014 678.589 33.936C678.502 34.2837 678.415 34.6314 678.241 34.8921V34.9791C678.241 34.9791 678.241 34.9791 678.241 35.066C678.241 35.1529 678.241 35.066 678.241 35.1529C678.241 35.1529 678.241 35.1529 678.328 35.066C678.415 34.9791 678.415 34.9791 678.415 34.8921C678.762 34.3706 679.197 33.7621 679.632 33.1537C680.066 32.5452 680.501 32.0237 680.935 31.5891C681.109 31.4152 681.37 31.2414 681.718 31.1545C682.065 31.0675 682.413 31.0675 682.674 31.3283C682.674 31.3283 682.761 31.4152 682.761 31.5022C682.848 31.5891 682.848 31.676 682.935 31.7629V31.8498C683.022 32.1975 683.022 32.5452 682.935 32.8929C682.848 33.2406 682.674 33.5883 682.5 33.936C682.326 34.3706 682.152 34.7183 682.065 35.066C681.979 35.4137 682.065 35.6745 682.239 35.9352C682.761 36.2829 683.717 36.2829 685.108 35.6745C686.499 35.066 688.063 34.1968 689.628 32.806C689.975 32.7191 690.062 32.6322 690.149 32.6322Z" fill="#FDFDFD"/>
<path d="M714.402 33.3276C711.012 35.5876 707.535 38.1083 704.145 40.8899C703.363 43.9322 702.059 46.8006 700.407 49.6691C698.756 52.5376 696.93 55.0583 695.018 57.4052C693.106 59.7522 691.28 61.6645 689.629 63.1422C689.194 63.4899 688.586 64.0114 687.804 64.7068C687.021 65.4022 686.152 66.0106 685.196 66.5322C684.24 67.0537 683.37 67.4883 682.501 67.6622C681.632 67.836 680.937 67.5752 680.415 66.9668C679.894 66.1845 680.154 64.7937 681.197 63.0552C682.24 61.3168 683.892 59.1437 685.978 56.7968C688.064 54.4499 690.585 51.9291 693.367 49.3214C696.148 46.7137 698.93 44.2799 701.885 41.846C702.754 38.9776 703.102 35.9353 703.102 32.6322C703.102 31.5891 702.667 30.9806 701.972 30.8068H701.885C701.885 30.8068 701.885 30.8068 701.798 30.8068C701.45 30.8068 701.016 30.9806 700.668 31.1545C700.32 31.3283 699.886 31.5022 699.625 31.7629C699.625 31.7629 699.625 31.7629 699.538 31.8499C699.538 31.8499 699.538 31.8499 699.451 31.9368C699.364 32.0237 699.19 32.1106 699.104 32.1976C698.756 32.5453 698.321 32.8929 697.887 33.3276C696.67 34.4576 695.453 35.5006 694.062 36.6306C692.671 37.7606 691.454 38.6299 690.237 39.1514C689.02 39.6729 688.064 39.7599 687.369 39.2383C686.674 38.6299 686.5 37.7606 686.847 36.7176C687.195 35.6745 687.89 34.7183 688.847 33.7622C689.803 32.806 690.933 32.1106 692.15 31.676C693.367 31.2414 694.497 31.3283 695.54 32.0237C695.8 32.2845 695.8 32.5453 695.714 32.806C695.627 33.0668 695.366 33.3276 695.018 33.5883C694.67 33.8491 694.323 33.7622 694.062 33.6753C693.019 34.0229 691.976 34.4576 690.933 35.1529C689.89 35.8483 689.194 36.5437 688.673 37.1522C688.151 37.7606 688.238 38.1953 688.76 38.456C689.629 38.456 690.759 38.0214 691.976 37.1522C693.193 36.2829 694.497 35.1529 695.887 33.936C696.583 33.3276 697.278 32.7191 697.974 32.1976C698.06 32.1106 698.147 32.0237 698.234 32.0237C698.234 32.0237 698.321 31.9368 698.408 31.9368L698.495 31.8499C699.104 31.3283 699.799 30.8068 700.581 30.3722C701.364 29.9376 702.146 29.6768 702.841 29.7637C702.841 29.7637 702.841 29.7637 702.928 29.7637C703.276 29.8506 703.624 30.1114 703.884 30.4591C703.884 30.4591 703.884 30.546 703.971 30.546C704.145 30.8068 704.319 31.1545 704.406 31.5022C704.58 32.0237 704.667 32.6322 704.754 33.2406C704.84 33.8491 704.84 34.4576 704.84 34.9791C704.84 34.9791 704.84 34.9791 704.84 35.066C704.84 35.066 704.84 35.066 704.84 35.1529C704.84 36.7176 704.754 38.3691 704.406 40.0206C708.144 37.0653 711.447 34.7183 714.228 32.9799C714.402 32.8929 714.489 32.8929 714.576 32.9799C714.663 33.0668 714.663 33.1537 714.663 33.2406C714.663 33.3276 714.489 33.2406 714.402 33.3276ZM692.324 57.753C694.323 55.5799 696.061 53.3199 697.713 50.886C699.364 48.4522 700.668 45.8445 701.624 43.0629C697.713 46.366 694.236 49.5822 691.107 52.7114C687.977 55.8406 685.544 58.6222 683.805 60.9691C682.067 63.316 681.284 64.8806 681.545 65.7499C681.806 66.2714 682.327 66.4452 683.023 66.1845C683.718 65.9237 684.5 65.4022 685.457 64.7068C686.413 64.0114 687.282 63.1422 688.238 62.186C689.194 61.2299 689.977 60.4476 690.672 59.6652C691.367 58.8829 691.889 58.2745 692.237 57.9268C692.237 57.8399 692.237 57.753 692.324 57.753Z" fill="#FDFDFD"/>
<path d="M723.529 32.7191C723.616 32.6322 723.79 32.6322 723.877 32.6322C723.964 32.6322 724.051 32.7191 724.051 32.806C724.051 32.893 723.964 32.9799 723.79 33.1537C722.312 34.1968 720.748 35.066 719.27 35.7614C717.792 36.4568 716.488 36.8045 715.445 36.9784C714.402 37.1522 713.707 36.8045 713.446 36.1091C713.185 35.4137 713.533 34.1968 714.402 32.4584C714.576 32.2845 714.75 32.1107 715.011 32.1107C715.271 32.1107 715.532 32.1976 715.793 32.2845C716.054 32.3714 716.054 32.6322 715.88 32.9799C714.924 34.6314 714.663 35.6745 715.098 36.0222C715.532 36.3699 716.488 36.283 717.966 35.6745C719.444 35.066 721.443 34.1099 723.529 32.7191ZM715.793 31.0676C715.619 31.0676 715.532 30.9807 715.445 30.8068C715.358 30.633 715.358 30.4591 715.358 30.1983C715.358 30.1114 715.358 30.1114 715.445 30.0245C715.445 30.0245 715.445 30.0245 715.445 29.9376C715.532 29.6768 715.706 29.5899 715.793 29.503C715.967 29.416 716.228 29.3291 716.488 29.3291C716.575 29.3291 716.662 29.416 716.836 29.416C717.01 29.416 717.01 29.5899 717.097 29.6768C717.184 29.7637 717.097 30.0245 717.01 30.1983C716.923 30.3722 716.749 30.546 716.575 30.7199C716.401 30.8937 716.054 31.0676 715.793 31.0676Z" fill="#FDFDFD"/>
<path d="M483.752 229.169H485.106V229.282C484.711 229.282 484.542 229.451 484.542 229.79V243.442H484.373L475.29 229.79V242.822C475.29 243.16 475.459 243.33 475.854 243.33V243.442H474.5V243.33C474.895 243.33 475.064 243.16 475.064 242.822V229.79C475.064 229.451 474.895 229.282 474.5 229.282V229.169H476.249L484.373 241.186V229.733C484.373 229.395 484.203 229.226 483.809 229.226V229.169H483.752Z" fill="#FDFDFD"/>
<path d="M493.792 243.217C494.074 243.217 494.3 243.16 494.469 243.104C494.638 243.047 494.807 242.878 494.977 242.709C495.09 242.54 495.202 242.37 495.259 242.314C495.315 242.258 495.372 242.088 495.484 241.863H495.541L494.977 243.442H486.684V243.33C487.079 243.33 487.248 243.16 487.248 242.822V229.79C487.248 229.451 487.079 229.282 486.684 229.282V229.169H494.356L494.92 230.749H494.807C494.751 230.523 494.638 230.41 494.582 230.298C494.525 230.185 494.413 230.072 494.3 229.903C494.187 229.733 494.018 229.564 493.792 229.508C493.623 229.451 493.341 229.395 493.115 229.395H488.376V236.221H492.551C492.889 236.221 493.059 236.052 493.059 235.657H493.171V237.011H493.059C493.059 236.616 492.889 236.447 492.551 236.447H488.376V243.273H493.792V243.217Z" fill="#FDFDFD"/>
<path d="M514.328 229.169V229.282C513.933 229.282 513.651 229.451 513.595 229.79L509.984 243.442H509.759L504.907 231.087L501.071 243.442H500.901L496.557 229.79C496.445 229.451 496.219 229.282 495.768 229.282V229.169H498.137V229.282C497.968 229.282 497.855 229.338 497.742 229.395C497.686 229.451 497.629 229.564 497.686 229.733L501.409 241.693L505.302 229.169H505.471L510.21 241.581L513.313 229.733C513.313 229.621 513.313 229.508 513.256 229.395C513.2 229.338 513.031 229.282 512.861 229.282V229.169H514.328Z" fill="#FDFDFD"/>
<path d="M531.708 229.169V229.282C531.257 229.282 530.974 229.451 530.805 229.79L526.969 236.785V242.822C526.969 243.16 527.138 243.33 527.533 243.33V243.442H525.164V243.33C525.559 243.33 525.728 243.16 525.728 242.822V236.785L521.609 229.79C521.44 229.451 521.102 229.282 520.65 229.282V229.169H523.189V229.282C522.851 229.282 522.738 229.451 522.963 229.79L526.8 236.56L530.523 229.79C530.692 229.451 530.636 229.282 530.241 229.282V229.169H531.708Z" fill="#FDFDFD"/>
<path d="M534.244 229.959C535.316 229.282 536.501 229 537.798 229C539.096 229 540.281 229.339 541.352 229.959C542.424 230.636 543.271 231.482 543.891 232.611C544.512 233.739 544.794 234.924 544.794 236.278C544.794 237.632 544.512 238.816 543.891 239.945C543.271 241.073 542.424 241.976 541.352 242.596C540.281 243.217 539.096 243.555 537.798 243.555C536.501 243.555 535.316 243.217 534.244 242.596C533.172 241.976 532.326 241.073 531.705 239.945C531.085 238.816 530.803 237.632 530.803 236.278C530.803 234.924 531.085 233.739 531.705 232.611C532.326 231.539 533.172 230.636 534.244 229.959ZM537.798 243.386C538.475 243.386 539.039 243.273 539.66 243.047C540.224 242.822 540.732 242.483 541.24 242.032C541.691 241.581 542.086 241.073 542.424 240.509C542.763 239.945 543.045 239.268 543.214 238.534C543.383 237.801 543.496 237.067 543.496 236.278C543.496 235.262 543.383 234.359 543.101 233.457C542.819 232.611 542.424 231.821 541.917 231.2C541.409 230.58 540.845 230.072 540.111 229.677C539.378 229.282 538.644 229.113 537.855 229.113C536.783 229.113 535.824 229.451 534.977 230.072C534.131 230.692 533.454 231.539 532.947 232.667C532.439 233.739 532.213 234.924 532.213 236.278C532.213 237.632 532.439 238.816 532.947 239.888C533.454 240.96 534.075 241.806 534.977 242.483C535.88 243.16 536.726 243.386 537.798 243.386Z" fill="#FDFDFD"/>
<path d="M555.119 242.822C555.288 243.16 555.626 243.33 556.021 243.33V243.442H553.652V243.33C553.99 243.33 554.103 243.16 553.934 242.822L550.831 237.011C550.492 237.067 550.21 237.067 549.872 237.067H547.897V242.822C547.897 243.16 548.123 243.33 548.518 243.33V243.442H546.148V243.33C546.543 243.33 546.713 243.16 546.713 242.822V229.79C546.713 229.451 546.543 229.282 546.148 229.282V229.169H549.928C551.621 229.169 552.975 229.508 553.877 230.185C554.78 230.862 555.231 231.821 555.231 233.062C555.231 234.077 554.893 234.924 554.159 235.601C553.426 236.278 552.523 236.729 551.282 236.898L552.016 237.011L555.119 242.822ZM549.928 236.898C551.226 236.898 552.241 236.56 552.918 235.883C553.595 235.206 553.99 234.303 553.99 233.118C553.99 231.877 553.652 230.975 552.975 230.298C552.298 229.621 551.282 229.338 549.985 229.338H548.01V236.842H549.928V236.898Z" fill="#FDFDFD"/>
<path d="M567.248 242.822C567.53 243.16 567.868 243.33 568.32 243.33V243.442H565.668V243.33C566.007 243.33 566.063 243.16 565.781 242.822L560.478 236.165L558.673 238.534V242.822C558.673 243.16 558.898 243.33 559.293 243.33V243.442H556.924V243.33C557.319 243.33 557.488 243.16 557.488 242.822V229.79C557.488 229.451 557.319 229.282 556.924 229.282V229.169H559.293V229.282C558.898 229.282 558.673 229.451 558.673 229.79V238.252L565.161 229.79C565.386 229.451 565.33 229.282 564.991 229.282V229.169H566.345V229.282C565.894 229.282 565.555 229.451 565.273 229.79L561.099 235.262L567.248 242.822Z" fill="#FDFDFD"/>
</svg>
