<svg viewBox="0 0 230 33" fill="none" xmlns="http://www.w3.org/2000/svg">
<path d="M17.9925 0.56543L19.1244 3.51215H18.9292C18.7536 3.14137 18.617 2.84865 18.5194 2.67302C18.4219 2.49739 18.2462 2.2437 17.9925 1.89243C17.7388 1.56068 17.4266 1.30699 17.0753 1.15087C16.7046 0.994753 16.2948 0.916698 15.8069 0.916698H10.655V25.915C10.655 26.52 11.0258 26.8322 11.7478 26.8322V27.0273H7.31801V26.8322C8.07908 26.8322 8.44986 26.5395 8.44986 25.915V0.955723H3.27847C2.82963 0.955723 2.41982 1.03378 2.04904 1.1899C1.67826 1.34602 1.36603 1.58019 1.13185 1.93146C0.87816 2.26321 0.702528 2.53641 0.604955 2.71204C0.507381 2.88768 0.370779 3.16089 0.195147 3.55118H0L1.09282 0.604461H17.9925V0.56543Z" fill="#2B3F88"/>
<path d="M22.8712 1.83438C24.8032 0.604954 26.9498 0 29.2915 0C31.6333 0 33.7604 0.604954 35.7119 1.83438C37.6438 3.0638 39.166 4.70304 40.2588 6.79111C41.3516 8.87918 41.898 11.1429 41.898 13.6213C41.898 16.0996 41.3516 18.3633 40.2588 20.4514C39.166 22.5395 37.6438 24.1787 35.7119 25.4081C33.7799 26.6375 31.6333 27.2425 29.2915 27.2425C26.9498 27.2425 24.8227 26.6375 22.8712 25.4081C20.9393 24.1787 19.4171 22.5395 18.3243 20.4514C17.2315 18.3633 16.6851 16.0996 16.6851 13.6213C16.6851 11.1429 17.2315 8.87918 18.3243 6.79111C19.4171 4.72256 20.9393 3.0638 22.8712 1.83438ZM29.2915 26.8522C30.4624 26.8522 31.5748 26.6375 32.609 26.1887C33.6628 25.7399 34.58 25.1154 35.3996 24.3153C36.2193 23.5152 36.9218 22.559 37.5463 21.4857C38.1512 20.3928 38.6196 19.1829 38.9318 17.8364C39.244 16.4899 39.4002 15.0849 39.4002 13.6213C39.4002 11.7869 39.1465 10.0501 38.6586 8.43034C38.1512 6.81063 37.4682 5.40557 36.5705 4.23469C35.6728 3.06381 34.5995 2.1271 33.3311 1.44409C32.0626 0.741557 30.7161 0.409809 29.272 0.409809C27.3401 0.409809 25.6033 0.99525 24.0616 2.16613C22.5199 3.33701 21.31 4.93722 20.4514 6.94723C19.5927 8.95724 19.1634 11.2014 19.1634 13.6408C19.1634 16.0801 19.5927 18.3243 20.4514 20.3343C21.31 22.3443 22.5199 23.9445 24.0616 25.1154C25.6228 26.2668 27.3596 26.8522 29.2915 26.8522Z" fill="#2B3F88"/>
<path d="M57.139 0.56543L58.2709 3.51215H58.0757C57.9001 3.14137 57.7635 2.84865 57.6659 2.67302C57.5684 2.49739 57.3927 2.2437 57.139 1.89243C56.8853 1.56068 56.5731 1.30699 56.2218 1.15087C55.8511 0.994753 55.4413 0.916698 54.9534 0.916698H49.8015V25.915C49.8015 26.52 50.1723 26.8322 50.8943 26.8322V27.0273H46.484V26.8322C47.2451 26.8322 47.6159 26.5395 47.6159 25.915V0.955723H42.4445C41.9956 0.955723 41.5858 1.03378 41.2151 1.1899C40.8443 1.34602 40.532 1.58019 40.2979 1.93146C40.0442 2.26321 39.8685 2.53641 39.771 2.71204C39.6734 2.88768 39.5368 3.16089 39.3612 3.55118H39.166L40.2588 0.604461H57.139V0.56543Z" fill="#2B3F88"/>
<path d="M74.6241 25.955C74.8778 26.56 75.3852 26.8722 76.1658 26.8722V27.0674H71.7359V26.8722C72.0677 26.8722 72.2824 26.7942 72.419 26.6576C72.536 26.5209 72.5556 26.3453 72.458 26.1111L69.3161 18.0516H58.9148L56.2413 26.0721C56.1632 26.3258 56.2023 26.5209 56.3389 26.6576C56.4755 26.7942 56.7096 26.8722 57.0414 26.8722V27.0674H54.4655V26.8722C55.246 26.8722 55.7339 26.5795 55.9486 25.955L64.3789 0.585938H64.7497L74.6241 25.955ZM59.0709 17.6613H69.2186L63.7154 3.63023L59.0709 17.6613Z" fill="#2B3F88"/>
<path d="M92.7338 24.1001H92.9289L91.8361 27.0469H77.4928V26.8517C78.2344 26.8517 78.5856 26.559 78.5856 25.9345V1.67777C78.5856 1.07281 78.2148 0.760577 77.4928 0.760577V0.56543H81.9226V0.760577C81.1616 0.760577 80.7908 1.0533 80.7908 1.67777V26.6761H89.6504C90.0212 26.6761 90.3725 26.6175 90.7042 26.4809C91.036 26.3638 91.2897 26.2077 91.4848 26.0711C91.68 25.915 91.8751 25.7003 92.0703 25.3881C92.2654 25.0759 92.402 24.8807 92.4606 24.7441C92.5191 24.6075 92.5972 24.3929 92.7338 24.1001Z" fill="#2B3F88"/>
<path d="M102.276 5.44461C102.296 6.30326 102.589 7.08385 103.135 7.76686C103.682 8.46939 104.384 9.05483 105.262 9.54269C106.14 10.0306 107.097 10.4989 108.131 10.9673C109.185 11.4161 110.219 11.904 111.273 12.4504C112.327 12.9773 113.263 13.5627 114.122 14.1872C114.981 14.8117 115.683 15.6118 116.229 16.5875C116.776 17.5632 117.049 18.6561 117.049 19.866C117.049 21.0564 116.756 22.1297 116.151 23.1054C115.546 24.0811 114.805 24.8422 113.868 25.4276C112.932 26.0131 111.936 26.4619 110.863 26.7742C109.79 27.0864 108.716 27.2425 107.624 27.2425C104.618 27.2425 102.14 26.4814 100.169 24.9788L99.681 21.232C100.169 22.6956 101.086 24.0031 102.472 25.1544C103.857 26.3058 105.574 26.8717 107.624 26.8717C109.594 26.8717 111.234 26.2863 112.58 25.1349C113.907 23.9836 114.59 22.4419 114.59 20.5295C114.59 19.4366 114.337 18.4804 113.81 17.6413C113.302 16.8022 112.639 16.0996 111.819 15.5337C111.019 14.9873 110.102 14.4604 109.107 13.992C108.111 13.5042 107.116 13.0358 106.121 12.5675C105.126 12.0991 104.208 11.6113 103.369 11.0844C102.53 10.577 101.847 9.91347 101.281 9.09386C100.735 8.29376 100.423 7.37657 100.364 6.3618C100.266 4.2347 100.91 2.65401 102.335 1.60022C103.74 0.546429 105.614 0.0195312 107.936 0.0195312C110.531 0.0195312 112.795 0.819636 114.746 2.40032L115.098 5.73733C114.512 4.11761 113.634 2.82964 112.463 1.85391C111.292 0.878176 109.79 0.390309 107.936 0.390309C106.179 0.390309 104.774 0.858665 103.779 1.81488C102.784 2.75159 102.276 3.96149 102.276 5.44461Z" fill="#2B3F88"/>
<path d="M137.969 25.7597C138.476 26.3647 139.14 26.6769 139.979 26.6769V26.872H135.022V26.6769C135.647 26.6769 135.705 26.3842 135.217 25.7597L125.304 13.3484L121.928 17.7392V25.7597C121.928 26.3647 122.299 26.6769 123.06 26.6769V26.872H118.63V26.6769C119.352 26.6769 119.723 26.3842 119.723 25.7597V1.48343C119.723 0.878478 119.352 0.566241 118.63 0.566241V0.371094H123.06V0.566241C122.299 0.566241 121.928 0.858963 121.928 1.48343V17.2513L133.988 1.48343C134.437 0.878478 134.359 0.566241 133.715 0.566241V0.371094H136.291V0.566241C135.452 0.566241 134.808 0.858963 134.32 1.48343L126.572 11.6506L137.969 25.7597Z" fill="#2B3F88"/>
<path d="M187.809 29.7985C189.312 31.4182 190.873 32.3549 192.493 32.6086C191.302 32.6086 190.288 32.4915 189.409 32.2378C188.531 31.9841 187.712 31.5353 186.951 30.9108C185.624 32.2378 184.023 32.9208 182.13 32.9208C182.091 32.9208 182.052 32.9208 181.994 32.9208C181.76 32.9208 181.545 32.9208 181.369 32.9013C181.194 32.9013 180.881 32.8623 180.472 32.8233C180.062 32.7842 179.691 32.7062 179.359 32.5891C179.028 32.4915 178.657 32.3159 178.208 32.1012C177.779 31.8866 177.388 31.6133 177.076 31.3011C176.764 30.9889 176.452 30.5791 176.139 30.0717C175.847 29.5643 175.593 28.9984 175.437 28.3934C175.222 27.4567 175.183 26.5981 175.32 25.8175C175.456 25.0174 175.749 24.2953 176.198 23.6318C176.647 22.9683 177.135 22.4219 177.701 21.9536C178.247 21.5047 178.832 21.1535 179.437 20.8998C179.398 20.8412 179.34 20.7632 179.262 20.6461C177.018 17.9726 176.296 15.0064 177.623 12.3524C178.013 11.5913 178.696 11.0058 179.359 10.5375C180.042 10.0691 180.842 9.83496 181.76 9.83496C183.087 9.83496 184.297 10.2448 185.389 11.0449L185.682 13.5623C185.311 12.606 184.784 11.8059 184.082 11.1229C183.379 10.4399 182.618 10.1082 181.76 10.1082C180.999 10.1082 180.472 10.4009 179.886 10.8692C179.34 11.2986 178.832 12.2743 178.618 12.9963C178.11 14.7722 178.325 16.8017 179.925 19.0654C180.355 19.6704 181.233 20.8803 181.721 21.4852C181.799 21.5828 183.126 23.2806 183.809 24.2758C184.492 25.2711 185.038 26.0907 185.467 26.6957C186.346 27.9641 187.029 28.8813 187.536 29.4472C188.18 28.5105 188.551 27.4762 188.629 26.3249C188.726 25.1735 188.531 24.0417 188.024 22.9488C187.809 22.5195 187.38 22.3048 186.755 22.3048V22.1682H188.726V22.3048C188.219 22.3048 188.082 22.539 188.317 23.0074C188.726 23.866 188.941 24.7247 188.98 25.5833C189.019 26.4615 188.941 27.2225 188.726 27.886C188.492 28.5691 188.199 29.1935 187.809 29.7985ZM182.267 32.0817C183.848 32.2964 185.292 31.789 186.56 30.5791C185.721 29.818 184.843 28.7642 183.887 27.3787C182.13 24.8418 180.686 22.7732 179.594 21.173C178.481 21.9146 177.74 22.8903 177.31 24.1002C176.9 25.3101 176.861 26.559 177.213 27.808C177.564 29.0569 178.208 30.0522 179.164 30.7742C180.12 31.4963 181.135 31.9256 182.267 32.0817Z" fill="#2B3F88"/>
<path d="M215.735 22.6167H216.086C214.037 25.8171 211.032 27.4173 207.09 27.4173C204.67 27.4173 202.465 26.8123 200.455 25.5829C198.445 24.3535 196.884 22.7143 195.752 20.6262C194.62 18.5381 194.054 16.2744 194.054 13.7961C194.054 11.3177 194.62 9.05399 195.752 6.96592C196.884 4.87785 198.464 3.23861 200.455 2.00919C202.465 0.779765 204.67 0.174805 207.09 0.174805C208.495 0.174805 209.763 0.35044 210.856 0.721219C211.949 1.092 213.1 1.69695 214.271 2.5556L214.603 5.89261C213.979 4.23386 212.983 2.92638 211.637 1.97016C210.29 1.03345 208.768 0.545588 207.07 0.545588C205.08 0.545588 203.285 1.13103 201.684 2.30191C200.084 3.47279 198.835 5.07299 197.938 7.08301C197.04 9.09302 196.591 11.3372 196.591 13.7765C196.591 16.2159 197.04 18.4601 197.938 20.4701C198.835 22.4801 200.084 24.0803 201.684 25.2512C203.285 26.4221 205.08 27.0075 207.07 27.0075C208.807 27.0075 210.446 26.6172 211.988 25.8561C213.53 25.1341 214.779 24.0413 215.735 22.6167Z" fill="#2B3F88"/>
<path d="M210.329 2.02969C212.339 0.800266 214.544 0.195312 216.964 0.195312C219.384 0.195312 221.589 0.800266 223.599 2.02969C225.609 3.25912 227.17 4.89835 228.302 6.98643C229.434 9.0745 230 11.3382 230 13.8166C230 16.2949 229.434 18.5586 228.302 20.6467C227.17 22.7348 225.59 24.374 223.599 25.6034C221.589 26.8329 219.384 27.4378 216.964 27.4378C214.544 27.4378 212.339 26.8329 210.329 25.6034C208.319 24.374 206.758 22.7348 205.626 20.6467C204.494 18.5586 203.928 16.2949 203.928 13.8166C203.928 11.3382 204.494 9.0745 205.626 6.98643C206.758 4.89835 208.319 3.25912 210.329 2.02969ZM216.964 27.0475C218.174 27.0475 219.325 26.8329 220.399 26.384C221.492 25.9352 222.448 25.3107 223.287 24.5106C224.126 23.7105 224.868 22.7543 225.492 21.681C226.117 20.5882 226.604 19.3782 226.936 18.0317C227.268 16.6852 227.424 15.2802 227.424 13.8166C227.424 11.9822 227.17 10.2454 226.643 8.62566C226.117 7.00594 225.414 5.60088 224.497 4.43C223.58 3.25912 222.467 2.32241 221.14 1.6394C219.833 0.936869 218.428 0.605122 216.945 0.605122C214.954 0.605122 213.159 1.19056 211.559 2.36144C209.958 3.53232 208.709 5.13253 207.812 7.14254C206.914 9.15255 206.465 11.3967 206.465 13.8361C206.465 16.2754 206.914 18.5196 207.812 20.5296C208.709 22.5396 209.958 24.1398 211.559 25.3107C213.178 26.4621 214.974 27.0475 216.964 27.0475Z" fill="#2B3F88"/>
<path d="M145.755 0.566219C144.994 0.566219 144.623 0.858942 144.623 1.48341V25.7597C144.623 26.3646 144.994 26.6769 145.755 26.6769V26.872H141.325V26.6769C142.067 26.6769 142.418 26.3841 142.418 25.7597V1.4639C142.418 0.858941 142.047 0.546709 141.325 0.546709V0.351562H145.755V0.566219Z" fill="#2B3F88"/>
<path d="M165.289 0.371072H167.865V0.566219C167.124 0.566219 166.773 0.858942 166.773 1.48341V26.8525H166.402L149.463 1.4639V25.7402C149.463 26.3451 149.834 26.6574 150.556 26.6574V26.8525H147.98V26.6574C148.721 26.6574 149.073 26.3646 149.073 25.7402V1.4639C149.073 0.858941 148.702 0.546709 147.98 0.546709V0.351562H151.278L166.402 22.7739V1.4639C166.402 0.858941 166.031 0.546709 165.309 0.546709V0.371072H165.289Z" fill="#2B3F88"/>
</svg>
