<svg width="25" height="25" viewBox="0 0 25 25" fill="none" xmlns="http://www.w3.org/2000/svg">
<path d="M24.0127 12.2741C24.0127 5.65613 18.6367 0.286133 12.0127 0.286133C5.3887 0.286133 0.0126953 5.65613 0.0126953 12.2741C0.0126953 15.9191 1.6687 19.2041 4.2607 21.4091C4.2847 21.4331 4.3087 21.4331 4.3087 21.4571C4.5247 21.6251 4.7407 21.7931 4.9807 21.9611C5.1007 22.0331 5.1967 22.1276 5.3167 22.2236C7.2998 23.5682 9.64076 24.2867 12.0367 24.2861C14.4326 24.2867 16.7736 23.5682 18.7567 22.2236C18.8767 22.1516 18.9727 22.0571 19.0927 21.9836C19.3087 21.8171 19.5487 21.6491 19.7647 21.4811C19.7887 21.4571 19.8127 21.4571 19.8127 21.4331C22.3567 19.2026 24.0127 15.9191 24.0127 12.2741ZM12.0127 22.7756C9.7567 22.7756 7.6927 22.0556 5.9887 20.8571C6.0127 20.6651 6.0607 20.4746 6.1087 20.2826C6.2517 19.7623 6.46144 19.2626 6.7327 18.7961C6.9967 18.3401 7.3087 17.9321 7.6927 17.5721C8.0527 17.2121 8.48469 16.8776 8.91669 16.6136C9.37269 16.3496 9.8527 16.1576 10.3807 16.0136C10.9128 15.8702 11.4616 15.7981 12.0127 15.7991C13.6487 15.7875 15.2245 16.4151 16.4047 17.5481C16.9567 18.1001 17.3887 18.7481 17.7007 19.4906C17.8687 19.9226 17.9887 20.3786 18.0607 20.8571C16.2895 22.1024 14.1778 22.7722 12.0127 22.7756ZM8.3407 11.6756C8.12923 11.1915 8.02289 10.6679 8.0287 10.1396C8.0287 9.61313 8.1247 9.08513 8.3407 8.60513C8.5567 8.12513 8.84469 7.69463 9.20469 7.33463C9.56469 6.97463 9.9967 6.68813 10.4767 6.47213C10.9567 6.25613 11.4847 6.16013 12.0127 6.16013C12.5647 6.16013 13.0687 6.25613 13.5487 6.47213C14.0287 6.68813 14.4607 6.97613 14.8207 7.33463C15.1807 7.69463 15.4687 8.12663 15.6847 8.60513C15.9007 9.08513 15.9967 9.61313 15.9967 10.1396C15.9967 10.6916 15.9007 11.1956 15.6847 11.6741C15.4762 12.147 15.1835 12.5781 14.8207 12.9461C14.4525 13.3084 14.0215 13.6006 13.5487 13.8086C12.5569 14.2162 11.4445 14.2162 10.4527 13.8086C9.97991 13.6006 9.5489 13.3084 9.1807 12.9461C8.81742 12.5834 8.53164 12.1507 8.3407 11.6741V11.6756ZM19.4767 19.6346C19.4767 19.5866 19.4527 19.5626 19.4527 19.5146C19.2167 18.7638 18.8687 18.0528 18.4207 17.4056C17.9722 16.7537 17.4211 16.1788 16.7887 15.7031C16.3057 15.3398 15.7822 15.0338 15.2287 14.7911C15.4805 14.625 15.7138 14.4324 15.9247 14.2166C16.2825 13.8634 16.5967 13.4686 16.8607 13.0406C17.3922 12.1673 17.6667 11.1619 17.6527 10.1396C17.6601 9.3829 17.5131 8.63261 17.2207 7.93463C16.932 7.26209 16.5164 6.65147 15.9967 6.13613C15.4778 5.62618 14.867 5.21902 14.1967 4.93613C13.4976 4.64422 12.7463 4.49775 11.9887 4.50563C11.231 4.49822 10.4797 4.64521 9.78069 4.93763C9.10458 5.21991 8.49236 5.63571 7.98069 6.16013C7.47076 6.67851 7.06359 7.28876 6.7807 7.95863C6.48827 8.65661 6.34127 9.40691 6.3487 10.1636C6.3487 10.6916 6.4207 11.1956 6.5647 11.6741C6.7087 12.1781 6.9007 12.6341 7.1647 13.0646C7.4047 13.4966 7.7407 13.8806 8.1007 14.2406C8.3167 14.4566 8.5567 14.6471 8.8207 14.8151C8.26545 15.0642 7.74177 15.3784 7.26069 15.7511C6.63669 16.2311 6.0847 16.8056 5.6287 17.4296C5.17608 18.0741 4.82782 18.7858 4.5967 19.5386C4.5727 19.5866 4.5727 19.6346 4.5727 19.6586C2.6767 17.7401 1.5007 15.1511 1.5007 12.2741C1.5007 6.49613 6.2287 1.77263 12.0127 1.77263C17.7967 1.77263 22.5247 6.49613 22.5247 12.2741C22.5216 15.0341 21.4257 17.6805 19.4767 19.6346Z" fill="#2B3F88"/>
</svg>
