<svg width="634" height="108" viewBox="0 0 634 108" fill="none" xmlns="http://www.w3.org/2000/svg">
<path d="M60.824 53.4284C60.0128 54.251 59.0665 55.2106 58.2553 56.0332C54.4699 60.0089 50.6845 63.7105 46.8991 67.412C43.1137 71.1135 38.9228 74.5408 34.4614 77.9682C30.0001 81.3955 24.7276 84.6858 18.7791 87.976C18.6439 87.976 18.5087 88.1131 18.5087 88.1131C17.2919 88.6615 15.9401 89.2099 14.3177 89.8954C12.6954 90.5808 11.0731 90.9921 9.31561 91.2663C7.55811 91.5405 6.07099 91.4034 4.58387 90.855C3.09676 90.3066 2.01522 89.0728 1.20406 87.2905C0.663291 85.5083 0.52809 83.589 1.06886 81.3955C1.60963 79.202 2.28561 77.0085 3.36715 74.9521C4.44869 72.8957 5.53023 70.8393 6.74696 69.0571C7.96369 67.2749 9.04522 65.9039 9.99157 64.9443C14.1825 60.2831 18.3735 56.3074 22.4293 53.0171C26.4851 49.7269 30.8112 46.2996 35.4077 43.0093C38.2468 40.9529 41.221 38.7594 44.3305 36.2917C44.8712 35.8804 44.8712 35.4691 44.7361 35.0579C44.6009 34.6466 43.9249 34.6466 42.8433 35.0579C41.7618 35.4691 40.8155 35.8804 39.8691 36.2917C38.9228 36.703 37.9764 37.3885 36.8949 38.0739C36.3541 38.3481 35.6781 38.7594 35.1374 39.1707C35.1374 39.1707 35.1374 39.1707 35.0022 39.3078C34.3262 39.7191 33.2447 40.5416 31.6224 41.5013C30.0001 42.4609 28.2426 43.5577 26.3499 44.3802C24.4572 45.2028 22.8349 45.7512 21.4829 45.7512C20.131 45.7512 19.455 44.9286 19.3198 43.4206C19.3198 41.09 19.8606 38.7594 21.0774 36.1546C22.2941 33.5498 23.9164 31.0822 25.8091 28.4774C27.7018 25.8726 30.0001 23.542 32.2983 21.3485C34.5966 19.155 37.0301 17.0986 39.4635 15.3164C41.897 13.5342 44.0601 12.1632 46.088 11.2036C48.1159 10.2439 49.7382 9.69555 51.0901 9.83265C51.4957 9.83265 51.766 10.1068 51.766 10.5181C51.766 10.9294 51.6309 11.3407 51.4957 11.8891C51.3605 12.4374 50.8197 12.7116 50.4141 12.9858C49.3326 13.3971 47.8455 14.0825 46.2231 15.1793C44.6008 16.276 42.9785 17.2357 41.4914 18.3325C40.0043 19.4292 38.9228 20.1147 38.382 20.663C37.4356 21.4856 36.6245 22.1711 35.6781 22.9936C33.2447 25.05 30.9464 27.1064 28.9185 29.1628C26.8906 31.2192 25.1331 33.2757 23.7812 35.4692C22.4293 37.6627 21.4829 40.1303 20.9422 42.8722C20.807 43.8319 21.3477 44.2432 22.2941 44.1061C23.2404 43.969 24.7276 43.5577 26.3499 42.7351C27.9722 41.9126 29.7297 41.09 31.4872 39.9932C33.2447 38.8965 34.867 38.0739 36.2189 37.2514C37.4356 36.5659 38.382 36.0175 38.9228 35.7433C41.221 34.5095 42.9785 33.9611 44.3305 34.0982C45.6824 34.2353 46.088 34.7837 45.9528 35.8804C45.5472 37.1143 44.4657 38.3481 42.7082 39.8561C40.9507 41.3642 38.9228 42.8722 36.4893 44.6544C33.5151 46.7108 30.8112 48.9043 28.2426 51.0978C23.1052 55.4848 18.7791 59.7347 15.1289 63.5734C11.4787 67.412 8.91002 70.9764 7.15252 74.2667C6.61175 75.2263 5.93581 76.5972 5.39504 78.2424C4.85427 79.8875 4.31349 81.5326 3.90791 83.1777C3.50233 84.8229 3.50233 86.1938 3.90791 87.4276C4.44868 88.7986 5.53024 89.4841 6.88216 89.6211C8.23409 89.7582 9.99159 89.4841 11.6139 88.9357C13.2362 88.3873 14.9937 87.7018 16.4808 87.0164C17.9679 86.3309 18.9143 85.7825 19.5902 85.3712C26.7554 81.3955 33.2447 77.0085 39.1932 72.2103C45.1416 67.412 52.1716 60.9686 60.2832 52.88C60.4184 52.7429 60.5536 52.7429 60.6888 52.88C60.8239 53.0171 60.824 53.1542 60.824 53.2913C60.824 53.4284 60.9591 53.1542 60.824 53.4284Z" fill="#232B49"/>
<path d="M83.6721 52.3317C83.8073 52.3317 83.9425 52.4688 83.9425 52.4688C83.9425 52.4688 83.9425 52.6059 83.9425 52.743C82.7258 53.9768 81.1034 55.3478 79.2107 56.8558C77.3181 58.3638 75.155 59.8718 72.9919 61.2428C70.8288 62.6137 68.6657 63.4363 66.773 63.7105C64.8803 63.9847 63.1228 63.5734 61.9061 62.3395C61.5005 61.9282 61.0949 61.2428 60.9598 60.6944C60.8246 60.4202 60.6893 60.2831 60.5542 60.4202C60.419 60.5573 60.2838 60.5573 60.1486 60.6944C58.1207 63.7104 56.3632 66.8636 54.6057 69.8797C54.6057 69.8797 54.4705 70.0168 54.4705 70.1539C54.2001 70.5651 54.0649 70.8393 53.7945 70.8393C53.5241 70.8393 53.389 70.8393 53.2538 70.7022C53.1186 70.5651 53.1186 70.2909 53.2538 70.0168C55.1465 66.5894 57.1744 63.1621 59.4726 59.8718C59.6078 59.5977 59.8782 59.1864 60.0134 58.7751C60.1486 58.3638 60.2838 57.9525 60.2838 57.5413C60.2838 57.13 60.419 56.5816 60.419 56.0332C60.5541 53.2913 60.9597 50.5495 61.5005 47.8076C61.7709 46.1625 62.0413 44.6545 62.1765 43.4206C62.3117 43.0093 62.4469 42.7351 62.8524 42.461C63.258 42.1868 63.6636 42.1868 63.934 42.3239C64.2044 42.461 64.4747 42.8722 64.4747 43.6948C64.3395 45.6141 64.0692 47.6705 63.6636 49.864C63.3932 51.0978 63.258 52.4688 62.9876 53.7026C62.9876 53.9768 62.9876 54.251 63.1228 54.251C63.258 54.251 63.3932 54.1139 63.5284 53.9768C64.3396 52.8801 65.1507 51.7833 65.8267 50.6866C67.8545 47.8076 69.8824 44.9286 71.9103 42.0497C71.9103 41.9126 72.0455 41.9126 72.1807 41.9126C72.3159 41.9126 72.3159 41.9126 72.4511 42.0497C72.5863 42.1868 72.4511 42.1868 72.4511 42.3239C70.288 45.7512 67.9898 49.1785 65.6915 52.4688C65.0155 53.4284 64.4747 54.3881 63.7988 55.2106C63.3932 55.8961 62.9876 56.5816 62.8524 57.267C62.8524 57.267 62.8524 57.5413 62.7172 57.8154C62.5821 58.0896 62.582 58.5009 62.582 58.9122C62.582 59.5977 62.7173 60.146 62.9876 60.8315C63.3932 62.0653 64.2044 62.7508 65.6915 62.7508C67.1786 62.7508 68.8009 62.3395 70.8288 61.3799C72.8567 60.4202 75.0198 59.3235 77.1829 57.8154C79.3459 56.3074 81.509 54.6623 83.4017 52.743C83.4017 52.4688 83.5369 52.3317 83.6721 52.3317Z" fill="#232B49"/>
<path d="M119.771 52.4687C119.906 52.4687 119.906 52.6058 119.906 52.7429C119.906 52.88 119.771 53.0171 119.501 53.1542C115.986 54.9364 111.119 57.1299 105.17 59.7347C104.089 60.283 102.872 60.6943 101.79 61.2427C101.114 61.5169 100.438 61.9282 99.6272 62.4765C98.816 63.0249 98.1401 63.4362 97.5993 63.8475C97.0585 64.2587 96.653 64.5329 96.3826 64.67C94.3547 66.4523 92.3268 68.0974 90.4341 69.6054C88.5414 71.1134 86.9191 71.936 85.5672 72.4844C85.432 72.4844 85.2968 72.6215 85.1616 72.6215C84.6209 72.6215 84.3505 72.4844 84.2153 72.2102C84.0801 71.936 84.0801 71.5247 84.2153 71.2505C84.756 70.1538 85.7024 68.9199 87.3247 67.8232C88.947 66.7264 90.7045 65.4926 92.8676 64.3959C93.5435 63.9846 94.2196 63.5733 95.0307 62.8878C95.8419 62.2024 96.6529 61.654 97.3289 61.1056C98.0049 60.5572 98.4105 60.1459 98.5457 60.0088C100.979 57.4041 103.277 54.9364 105.035 52.6058C106.792 50.2752 108.009 48.3559 108.415 46.8479C108.82 45.3399 108.009 44.7915 105.981 44.9286C103.413 45.3398 100.709 46.5737 98.0049 48.493C95.301 50.4123 92.5972 53.0171 89.8933 55.896C87.1895 58.775 84.756 62.0653 82.3226 65.6297C79.8891 69.1941 77.726 72.4844 75.6982 75.9117C75.563 76.1859 75.2926 76.5972 74.887 77.4197C74.4814 78.2423 74.0758 79.0648 73.6703 79.8874C73.2647 80.71 72.9943 81.3954 72.8591 81.8067C72.7239 82.0809 72.5887 82.4922 72.4535 82.7664C72.1832 83.3147 72.048 83.8631 71.7776 84.4115C71.372 85.6453 70.8312 87.0163 70.1553 88.5243C69.4793 90.5807 68.6681 92.5 67.857 94.5564C67.0458 96.6128 66.2347 98.2579 65.5587 99.6288C64.8828 101 64.0716 101.685 63.5308 101.685C63.2604 101.685 63.1253 101.548 62.9901 101.274C62.8549 101 62.8549 100.726 62.9901 100.451C63.1253 100.177 63.1252 100.04 63.2604 99.9031C63.2604 99.766 63.2604 99.7659 63.3956 99.6288C64.6124 95.9273 66.2347 92.0887 68.1274 87.9759C68.6681 86.605 69.2089 85.3711 69.7497 84.0002C71.6424 79.0648 73.6703 74.1295 75.8334 69.3312C76.7797 67.2748 77.726 65.0813 78.5372 63.162C80.9707 57.5412 83.5393 52.1945 86.2432 46.8479C86.3784 46.7108 86.5135 46.5737 86.7839 46.5737C87.0543 46.5737 87.1895 46.5737 87.3247 46.7108C87.4599 46.8479 87.4599 46.985 87.4599 47.2592C87.4599 47.2592 87.4599 47.3963 87.3247 47.3963C85.0264 52.4687 82.8633 57.6783 80.7002 62.8878C79.7539 65.2184 78.8076 67.4119 77.8612 69.7425C77.8612 69.8796 77.8612 69.8796 77.726 70.0167C77.726 70.0167 77.726 70.0167 77.726 70.1538C77.5909 70.428 77.5909 70.7021 77.726 70.7021C77.8612 70.7021 77.9964 70.565 78.2668 70.2909C80.4299 67.0006 82.7282 63.8475 85.1616 60.5572C87.5951 57.267 90.1637 54.388 92.8676 51.7832C95.5714 49.1785 98.1401 46.985 100.709 45.477C103.277 43.9689 105.711 43.2834 108.009 43.2834C109.902 43.5576 110.983 44.3802 110.983 45.8882C110.983 47.3963 110.443 49.0414 109.361 50.9607C108.28 52.88 106.792 54.7993 105.17 56.4444C104.629 57.1299 103.683 58.0895 102.331 59.4605C102.061 59.7347 101.925 60.0089 101.925 60.1459C101.925 60.283 102.196 60.283 102.466 60.1459C107.198 58.3637 111.659 56.4444 115.715 54.6622L119.23 53.0171C119.501 52.3316 119.636 52.3316 119.771 52.4687ZM91.9212 66.041C92.0564 65.9039 92.0565 65.9039 92.0565 65.7668C92.0565 65.6297 92.0565 65.6297 92.0565 65.6297C92.0565 65.6297 91.7861 65.6297 91.6509 65.7668C90.8397 66.1781 90.2989 66.4523 89.8933 66.7264C88.1358 67.9603 86.7839 69.1941 85.7024 70.5651C85.5672 70.7021 85.7024 70.8392 85.8375 70.8392C85.9727 70.8392 86.108 70.8392 86.3784 70.7021C86.6487 70.565 86.784 70.565 86.9192 70.428C87.8655 69.6054 89.6229 68.0974 91.9212 66.041Z" fill="#232B49"/>
<path d="M135.856 53.1542C135.18 53.5655 134.639 53.9768 134.099 54.251C134.099 54.251 133.964 54.251 133.964 54.3881C133.693 54.5252 133.423 54.6622 133.288 54.7993C132.747 55.0735 132.341 55.3477 131.8 55.6219C130.719 56.3074 129.637 56.8557 128.556 57.267C126.934 57.9525 125.582 58.3638 124.365 58.5009C124.094 58.5009 123.824 58.638 123.554 58.638C123.283 58.638 122.878 58.638 122.607 58.5009C120.985 58.2267 119.904 57.6783 119.363 56.8558C118.822 56.0332 118.552 55.0735 118.687 54.1139C118.822 53.1542 119.092 52.3316 119.363 51.7832C120.174 50.6865 120.985 49.8639 122.067 49.3156C123.148 48.7672 124.094 48.6301 125.041 48.6301C125.987 48.6301 126.528 48.9043 126.933 49.3156C127.069 49.8639 126.663 50.4123 125.582 50.9607C124.5 51.5091 123.013 51.9204 121.12 52.3316C120.579 52.88 120.309 53.5655 120.309 54.3881C120.309 54.3881 120.309 54.5251 120.309 54.6622V54.7993C120.309 54.9364 120.309 54.9364 120.309 55.0735V55.2106C120.579 56.0332 120.985 56.7187 121.931 57.1299C122.878 57.5412 123.959 57.5412 125.582 57.1299C125.852 56.9928 126.122 56.9929 126.393 56.8558C126.393 56.8558 126.393 56.8558 126.528 56.8558C127.88 56.3074 129.232 55.759 130.448 55.0735C131.665 54.3881 133.288 53.4284 135.045 52.3316C135.045 52.3316 135.18 52.3316 135.18 52.1945C135.315 52.0574 135.451 52.0574 135.721 52.1945C135.991 52.3316 135.991 52.3316 135.991 52.4687C135.991 52.6058 136.127 53.0171 135.856 53.1542ZM122.337 51.6462C122.202 51.6462 122.202 51.7833 122.067 51.9204C122.067 51.9204 121.931 51.9204 121.931 52.0575C123.824 51.5091 125.041 51.0978 125.717 50.6865C126.393 50.2752 126.528 50.001 126.393 50.001C126.257 50.001 125.717 50.001 124.906 50.2752C124.094 50.5494 123.283 50.9607 122.337 51.6462Z" fill="#232B49"/>
<path d="M148.969 49.1786C149.24 49.3157 149.375 49.4528 149.375 49.5899C149.375 49.7269 149.375 50.0011 149.24 50.1382C149.104 50.4124 148.969 50.5495 148.699 50.6866C148.428 50.8237 148.158 50.8237 147.888 50.6866C146.806 50.2753 145.454 50.2753 144.102 50.5495C142.75 50.8237 141.398 51.5092 140.047 52.6059C139.506 53.0172 138.965 53.7026 138.019 54.5252C137.478 55.0736 136.937 55.759 136.667 56.3074C136.396 56.8558 136.126 57.5413 135.856 58.0896C135.585 58.9122 135.18 59.4606 134.909 60.0089C134.639 60.2831 134.504 60.5573 134.233 60.5573C133.963 60.5573 133.828 60.5573 133.692 60.5573H133.557C132.746 60.5573 132.746 59.4606 133.692 57.2671C134.233 55.759 134.774 54.251 135.315 52.743C135.315 52.6059 135.45 52.4688 135.45 52.1946C135.45 52.1946 135.45 52.1946 135.45 52.0575C135.45 52.0575 135.585 51.9204 135.585 51.7833C135.72 51.5091 135.856 51.235 136.261 50.8237C136.802 50.2753 137.343 50.0011 137.883 50.1382C138.424 50.2753 138.559 50.5495 138.424 51.3721C138.424 51.5092 138.289 51.7833 138.289 51.9204C138.289 51.9204 138.289 51.9204 138.289 52.0575C138.289 52.0575 138.289 52.0575 138.289 52.1946C138.289 52.3317 138.154 52.4688 138.154 52.6059C138.154 52.743 138.019 52.8801 138.019 53.0172C138.019 53.1543 138.019 53.2914 138.019 53.2914C138.019 53.2914 138.289 53.2914 138.559 53.0172C139.776 51.7833 140.858 50.8237 141.939 50.2753C143.021 49.7269 144.102 49.1786 145.319 48.7673C146.536 48.356 147.752 48.7673 148.969 49.1786Z" fill="#232B49"/>
<path d="M199.394 19.4291C199.529 19.4291 199.529 19.5662 199.664 19.5662C199.8 19.5662 199.664 19.8404 199.664 19.8404C199.664 19.8404 199.529 19.9775 199.259 19.9775C197.772 20.1146 196.285 20.1146 194.797 20.2517C186.551 20.8 178.304 21.4855 169.922 22.171C169.381 22.3081 168.84 22.4452 168.57 22.7193C168.3 22.9935 168.029 23.2677 167.894 23.5419C161.27 37.3884 155.592 50.6865 150.995 63.4362C150.184 65.7668 149.238 68.3716 148.291 71.1134C147.345 73.8553 146.534 76.5972 145.723 79.3391C144.911 82.0809 144.371 84.2744 144.1 86.1937C143.83 88.1131 143.83 89.3469 144.371 90.0323C145.587 90.8549 147.345 90.5808 149.778 89.2098C152.212 87.8389 154.78 85.7825 157.755 82.9035C160.729 80.0245 163.838 76.8714 167.083 73.3069C170.328 69.7425 173.302 66.041 176.141 62.4765C178.98 58.9121 181.549 55.4847 183.577 52.6058C183.712 52.4687 183.847 52.4687 183.847 52.4687C183.847 52.4687 184.117 52.4687 184.117 52.6058C184.117 52.7429 184.117 52.88 184.117 53.0171C181.549 56.9928 178.574 61.1056 175.195 65.3555C171.815 69.6054 168.57 73.7182 165.055 77.5568C161.54 81.3955 158.295 84.8228 155.051 87.5647C151.806 90.3066 149.102 92.2259 146.804 93.3226C144.506 94.4194 142.748 94.1452 141.667 92.7742C140.585 91.4033 140.45 88.3873 141.126 83.7261C141.667 81.5326 142.208 79.339 142.884 77.1455C142.884 77.0085 143.019 76.7343 143.019 76.5972C143.83 74.1295 144.641 71.7989 145.587 69.3312C148.562 61.3798 151.536 53.7025 154.78 46.1624C158.025 38.6222 161.27 31.2192 165.055 24.0903C165.19 23.679 165.19 23.4048 165.055 23.2677C164.92 23.1306 164.65 22.9935 164.379 23.1306C159.107 23.679 153.969 24.2274 148.697 24.9129C148.426 24.9129 148.291 24.9128 148.156 24.7757C148.021 24.6387 148.156 24.5016 148.156 24.5016C148.156 24.5016 148.291 24.3645 148.426 24.2274C153.564 23.2677 158.836 22.4452 164.244 21.7597C165.19 21.6226 165.866 21.3484 166.272 20.9371C166.677 20.5258 167.083 20.1146 167.218 19.8404C169.381 15.7276 171.815 11.7519 174.383 7.77614C174.519 7.50195 174.789 7.50195 175.059 7.50195C175.33 7.50195 175.6 7.63904 175.735 7.77614C175.87 7.91323 175.87 8.18741 175.735 8.59869C173.707 12.3002 171.68 16.1389 169.652 20.1146C169.381 20.8 169.787 21.2113 170.733 21.0742C180.467 19.8404 189.931 19.292 199.394 19.4291Z" fill="#232B49"/>
<path d="M251.717 45.477C251.987 45.477 252.258 45.477 252.393 45.6141C252.528 45.7511 252.528 46.0253 252.258 46.2995C251.987 46.5737 251.717 46.8479 251.041 46.985C249.419 47.3963 246.985 48.2188 243.876 49.5898C243.335 49.864 242.794 50.2752 242.389 50.8236C241.983 51.372 241.713 51.7833 241.577 52.0575C240.631 55.0735 239.685 57.9525 238.738 60.9686C237.657 64.3959 236.981 67.0007 236.44 68.92C235.899 70.8393 235.494 72.7586 235.088 74.815C234.683 76.5972 234.142 79.0649 233.466 82.2181C233.466 82.3552 233.196 82.4922 233.06 82.6293C232.925 82.7664 232.655 82.7664 232.384 82.7664C232.114 82.7664 232.114 82.4923 232.114 82.2181C232.79 76.5972 233.466 72.0731 234.412 68.3716C235.359 64.6701 236.575 60.2831 238.198 54.9364C238.468 54.251 238.603 53.4284 238.874 52.7429C239.009 52.4688 238.874 52.3316 238.738 52.1945C238.603 52.0575 238.333 52.0575 238.198 52.1945C238.062 52.3316 237.792 52.3317 237.657 52.3317C233.196 54.251 227.653 56.5816 221.028 59.5976C220.217 60.0089 219.406 60.5573 218.865 61.1056C218.324 61.654 217.919 62.0653 217.784 62.3395C216.702 64.1217 215.62 65.9039 214.539 67.549C211.294 72.8957 208.455 77.4198 206.022 81.1213C203.588 84.8228 202.101 86.605 201.29 86.7421C200.479 86.7421 200.209 86.468 200.344 86.0567C200.479 85.6454 200.749 85.097 201.155 84.4116C201.155 84.4116 201.155 84.4116 201.155 84.2745C201.561 83.7261 202.236 82.4922 203.183 80.5729C204.264 78.5165 205.616 76.323 206.968 73.8553C208.32 71.3877 209.402 69.6054 210.348 68.2345C211.159 67.0007 211.97 65.6297 212.781 64.2588C212.781 64.2588 212.781 64.1217 212.917 64.1217C213.187 63.7104 213.052 63.4362 212.917 63.4362C212.781 63.4362 212.376 63.4362 211.97 63.7104C209.672 64.8072 207.239 65.7668 204.805 67.0007C204.535 67.1378 204.264 67.1378 204.129 67.0007C203.994 66.8636 203.859 66.7265 203.859 66.5894C203.859 66.4523 203.994 66.3152 204.129 66.1781C206.022 65.2184 208.32 64.2588 211.024 63.025C211.565 62.7508 212.106 62.4766 212.646 62.3395C213.322 61.9282 213.998 61.5169 214.539 61.1056C215.08 60.6944 215.485 60.2831 215.62 60.0089C217.378 56.8557 219.271 53.8397 221.028 50.6865C224.543 44.5173 228.193 38.3481 232.114 32.1789C232.384 31.9047 232.52 31.7676 232.79 31.7676C233.06 31.7676 233.196 31.9047 233.331 32.0418C233.466 32.1789 233.466 32.4531 233.331 32.5902C229.275 40.8158 224.949 48.9043 220.352 56.7186C220.352 56.7186 220.352 56.7187 220.352 56.8557C226.841 46.4366 233.736 36.8401 240.766 27.7919C244.687 22.9936 247.526 19.8405 249.283 18.3324C251.041 16.8244 252.122 16.5502 252.258 17.647C252.393 18.7437 252.122 20.663 251.311 23.542C250.5 26.421 249.283 29.9854 247.931 33.9611C246.985 36.703 246.039 39.3078 245.228 42.0496C244.687 43.6948 244.146 45.3399 243.605 47.1221C243.605 47.2592 243.47 47.3963 243.47 47.6705C243.47 47.8075 243.335 47.9446 243.47 48.0817C243.605 48.2188 243.605 48.2188 243.741 48.2188C243.876 48.2188 243.876 48.2188 244.011 48.2188C244.146 48.2188 244.281 48.2188 244.281 48.2188H244.417C246.985 46.985 249.554 46.1624 251.717 45.477ZM216.161 62.7508C214.945 64.3959 213.187 67.1377 210.889 70.9764C208.59 74.815 206.292 78.2423 204.264 81.8068C204.129 81.9439 204.129 82.081 204.129 82.2181C204.129 82.3552 204.264 82.2181 204.4 81.9439C205.616 80.0246 206.968 77.8311 208.455 75.5005C209.942 73.1699 211.294 70.9764 212.241 69.3313C213.457 67.1378 214.809 64.9443 216.161 62.7508ZM243.47 38.4852C244.281 36.4288 244.957 34.3724 245.633 32.4531C246.309 30.5338 247.12 28.2032 248.067 25.3242C248.202 24.7758 248.472 24.2274 248.743 23.4049C249.013 22.5823 249.148 21.8969 249.283 21.3485C249.419 20.8001 249.283 20.3888 249.013 20.3888C248.472 20.3888 247.391 21.4856 245.633 23.4049C241.172 28.6144 236.44 34.5095 231.708 41.09C228.193 45.8883 224.678 51.2349 221.028 57.267C220.758 57.6783 220.758 57.9525 220.893 58.0896C221.028 58.2267 221.299 58.2267 221.569 58.0896C227.112 55.4848 232.52 53.1542 237.792 50.9607C238.333 50.6865 238.874 50.4123 239.279 50.0011C239.685 49.5898 239.955 49.3156 240.09 48.9043C241.037 45.477 242.253 42.0496 243.47 38.4852Z" fill="#232B49"/>
<path d="M272.535 52.3316C272.67 52.3316 272.67 52.4687 272.805 52.4687C272.94 52.4687 272.805 52.7429 272.67 52.7429C271.588 53.7026 270.372 54.6622 269.02 55.6219C267.668 56.5815 266.181 57.4041 264.694 57.9525C263.207 58.5008 261.719 58.9121 260.232 58.9121C259.151 58.9121 258.61 58.6379 258.34 58.0896C258.069 57.5412 258.069 56.9928 258.34 56.1703C258.61 55.3477 258.88 54.6622 259.151 53.9768C259.421 53.4284 259.556 52.88 259.691 52.4687C259.827 52.0574 259.827 51.6462 259.827 51.372C259.421 50.9607 258.88 51.0978 258.204 51.9204C257.528 52.7429 256.717 53.7026 255.906 55.0735C254.96 56.4444 254.149 57.6783 253.202 58.775C252.256 59.8718 251.445 60.2831 250.769 60.0089C250.363 59.8718 250.228 59.5976 250.363 59.1863C250.498 58.775 250.634 58.2267 250.904 57.6783C251.31 56.7186 251.58 56.0332 251.85 55.3477C252.256 54.1139 252.932 52.88 253.608 51.5091C253.743 51.372 253.878 51.2349 254.149 51.2349C254.419 51.2349 254.689 51.2349 254.96 51.372C255.23 51.5091 255.365 51.6462 255.365 52.0575C255.095 52.88 254.825 53.7026 254.554 54.388C254.419 54.9364 254.284 55.4848 254.013 55.8961V56.0332C254.013 56.0332 254.013 56.0332 254.013 56.1703C254.013 56.3074 254.013 56.1703 254.013 56.3073C254.013 56.3073 254.013 56.3074 254.149 56.1703C254.284 56.0332 254.284 56.0332 254.284 55.8961C254.825 55.0735 255.5 54.1138 256.176 53.1542C256.852 52.1945 257.528 51.372 258.204 50.6865C258.475 50.4123 258.88 50.1382 259.421 50.0011C259.962 49.864 260.503 49.864 260.908 50.2752C260.908 50.2752 261.043 50.4123 261.043 50.5494C261.179 50.6865 261.179 50.8236 261.314 50.9607V51.0978C261.449 51.6462 261.449 52.1946 261.314 52.7429C261.179 53.2913 260.908 53.8397 260.638 54.388C260.367 55.0735 260.097 55.6219 259.962 56.1703C259.827 56.7186 259.962 57.1299 260.232 57.5412C261.043 58.0896 262.531 58.0896 264.694 57.1299C266.857 56.1703 269.29 54.7993 271.724 52.6058C272.264 52.4687 272.4 52.3316 272.535 52.3316Z" fill="#232B49"/>
<path d="M310.254 53.4284C304.982 56.9928 299.574 60.9685 294.301 65.3555C293.085 70.1538 291.057 74.6778 288.488 79.2019C285.919 83.726 283.08 87.7017 280.106 91.4032C277.132 95.1047 274.293 98.1208 271.724 100.451C271.048 101 270.102 101.822 268.885 102.919C267.668 104.016 266.317 104.975 264.829 105.798C263.342 106.621 261.99 107.306 260.639 107.58C259.287 107.854 258.205 107.443 257.394 106.484C256.583 105.25 256.988 103.056 258.611 100.314C260.233 97.5724 262.802 94.1451 266.046 90.4436C269.291 86.7421 273.211 82.7664 277.538 78.6535C281.864 74.5407 286.19 70.7021 290.786 66.8635C292.138 62.3394 292.679 57.5412 292.679 52.3316C292.679 50.6865 292.003 49.7268 290.922 49.4526H290.786C290.786 49.4526 290.786 49.4526 290.651 49.4526C290.11 49.4526 289.434 49.7268 288.894 50.001C288.353 50.2752 287.677 50.5494 287.271 50.9607C287.271 50.9607 287.271 50.9607 287.136 51.0978C287.136 51.0978 287.136 51.0978 287.001 51.2349C286.866 51.3719 286.595 51.509 286.46 51.6461C285.919 52.1945 285.243 52.7429 284.568 53.4284C282.675 55.2106 280.782 56.8557 278.619 58.6379C276.456 60.4201 274.563 61.7911 272.671 62.6136C270.778 63.4362 269.291 63.5733 268.209 62.7507C267.128 61.791 266.857 60.4201 267.398 58.775C267.939 57.1299 269.02 55.6219 270.508 54.1138C271.995 52.6058 273.752 51.509 275.645 50.8236C277.538 50.1381 279.295 50.2752 280.917 51.372C281.323 51.7832 281.323 52.1945 281.188 52.6058C281.053 53.0171 280.647 53.4283 280.106 53.8396C279.565 54.2509 279.025 54.1138 278.619 53.9767C276.997 54.5251 275.374 55.2106 273.752 56.3073C272.13 57.4041 271.048 58.5008 270.237 59.4605C269.426 60.4201 269.561 61.1056 270.372 61.5169C271.724 61.5169 273.482 60.8314 275.374 59.4605C277.267 58.0895 279.295 56.3073 281.458 54.388C282.54 53.4284 283.621 52.4687 284.703 51.6461C284.838 51.509 284.973 51.372 285.108 51.372C285.108 51.372 285.244 51.2349 285.379 51.2349L285.514 51.0978C286.46 50.2752 287.542 49.4526 288.759 48.7672C289.975 48.0817 291.192 47.6704 292.273 47.8075C292.273 47.8075 292.274 47.8075 292.409 47.8075C292.95 47.9446 293.49 48.3559 293.896 48.9043C293.896 48.9043 293.896 49.0414 294.031 49.0414C294.301 49.4526 294.572 50.001 294.707 50.5494C294.977 51.3719 295.113 52.3316 295.248 53.2913C295.383 54.2509 295.383 55.2106 295.383 56.0331C295.383 56.0331 295.383 56.0331 295.383 56.1702C295.383 56.1702 295.383 56.1702 295.383 56.3073C295.383 58.775 295.248 61.3798 294.707 63.9846C300.52 59.3234 305.658 55.6218 309.984 52.88C310.254 52.7429 310.389 52.7429 310.525 52.88C310.66 53.0171 310.66 53.1542 310.66 53.2913C310.66 53.4283 310.389 53.2913 310.254 53.4284ZM275.78 91.9516C278.889 88.5243 281.593 84.9598 284.162 81.1212C286.731 77.2826 288.759 73.1698 290.246 68.7828C284.162 73.9924 278.754 79.0648 273.887 84.0002C269.02 88.9355 265.235 93.3225 262.531 97.0241C259.827 100.726 258.611 103.193 259.016 104.564C259.422 105.387 260.233 105.661 261.314 105.25C262.396 104.838 263.613 104.016 265.1 102.919C266.587 101.822 267.939 100.451 269.426 98.9434C270.913 97.4353 272.13 96.2015 273.211 94.9677C274.293 93.7338 275.104 92.7742 275.645 92.2258C275.645 92.0887 275.78 91.9516 275.78 91.9516Z" fill="#232B49"/>
<path d="M326.612 53.1542C325.936 53.5655 325.395 53.9768 324.855 54.251C324.855 54.251 324.719 54.251 324.719 54.3881C324.449 54.5252 324.179 54.6623 324.043 54.7994C323.503 55.0736 323.097 55.3477 322.556 55.6219C321.475 56.3074 320.393 56.8558 319.312 57.2671C317.689 57.9525 316.337 58.3638 315.121 58.5009C314.85 58.5009 314.58 58.638 314.31 58.638C314.039 58.638 313.634 58.638 313.363 58.5009C311.741 58.2267 310.659 57.6784 310.119 56.8558C309.578 56.0332 309.307 55.0736 309.443 54.1139C309.578 53.1542 309.848 52.3317 310.119 51.7833C310.93 50.6865 311.741 49.864 312.822 49.3156C313.904 48.7672 314.85 48.6301 315.797 48.6301C316.743 48.6301 317.284 48.9043 317.689 49.3156C317.825 49.864 317.419 50.4124 316.337 50.9607C315.256 51.5091 313.769 51.9204 311.876 52.3317C311.335 52.8801 311.065 53.5655 311.065 54.3881C311.065 54.3881 311.065 54.5252 311.065 54.6623V54.7994C311.065 54.9365 311.065 54.9365 311.065 55.0736V55.2106C311.335 56.0332 311.741 56.7187 312.687 57.13C313.634 57.5413 314.715 57.5413 316.337 57.13C316.608 56.9929 316.878 56.9929 317.149 56.8558C317.149 56.8558 317.149 56.8558 317.284 56.8558C318.636 56.3074 319.988 55.759 321.204 55.0736C322.421 54.3881 324.043 53.4284 325.801 52.3317C325.801 52.3317 325.936 52.3317 325.936 52.1946C326.071 52.0575 326.206 52.0575 326.477 52.1946C326.747 52.3317 326.747 52.3317 326.747 52.4688C326.747 52.6058 326.747 53.0171 326.612 53.1542ZM312.958 51.6462C312.822 51.6462 312.823 51.7833 312.687 51.9204C312.687 51.9204 312.552 51.9204 312.552 52.0575C314.445 51.5091 315.661 51.0978 316.337 50.6865C317.013 50.2753 317.149 50.0011 317.013 50.0011C316.878 50.0011 316.337 50.0011 315.526 50.2753C314.715 50.5494 313.904 50.9607 312.958 51.6462Z" fill="#232B49"/>
<path d="M356.76 52.4688C356.895 52.3317 357.03 52.3317 357.166 52.3317C357.301 52.3317 357.436 52.4688 357.571 52.6059C357.706 52.743 357.571 52.8801 357.436 53.1543C354.597 56.5816 351.893 59.7348 349.189 62.7508C346.486 65.7669 343.782 68.783 340.943 71.6619C333.101 79.6134 327.288 84.1375 323.368 85.5084C319.447 86.8793 317.689 85.2342 317.689 80.8472C317.689 76.4602 319.582 69.3313 323.368 59.5977C327.288 49.5898 330.938 40.5416 334.589 32.5902C338.239 24.6388 342.159 16.5502 346.756 8.32461C347.026 7.91333 347.297 7.77625 347.702 7.77625C348.108 7.77625 348.243 7.91333 348.513 8.32461C348.784 8.73589 348.649 9.01009 348.378 9.55847C343.376 18.8808 339.185 27.5177 335.805 35.3321C332.425 43.1464 328.64 53.2914 324.179 65.3556C324.044 65.7669 323.908 66.1782 323.638 66.5895C323.503 67.0007 323.232 67.6862 322.827 68.6459C322.421 69.6055 322.151 70.7023 321.88 71.9361C321.61 73.17 321.204 74.5409 320.934 75.7747C320.664 77.0086 320.529 78.3795 320.393 79.4763C320.258 80.573 320.393 81.5327 320.664 82.2182C320.934 82.9036 321.34 83.3149 322.016 83.3149C323.368 83.3149 324.99 82.7665 326.883 81.6698C328.775 80.573 330.803 79.065 332.966 77.1457C335.129 75.2264 337.428 73.1699 339.726 70.9764C342.024 68.7829 344.187 66.4524 346.35 64.1218C348.513 61.7912 350.541 59.5977 352.299 57.5413C354.056 55.4849 355.408 53.9768 356.76 52.4688Z" fill="#232B49"/>
<path d="M387.315 52.4688C387.45 52.3317 387.585 52.3317 387.72 52.3317C387.856 52.3317 387.991 52.4688 388.126 52.6059C388.261 52.743 388.126 52.8801 387.991 53.1543C385.152 56.5816 382.448 59.7348 379.744 62.7508C377.04 65.7669 374.336 68.783 371.497 71.6619C363.656 79.6134 357.843 84.1375 353.922 85.5084C350.002 86.8793 348.244 85.2342 348.244 80.8472C348.244 76.4602 350.137 69.3313 353.922 59.5977C357.843 49.5898 361.493 40.5416 365.143 32.5902C368.793 24.6388 372.714 16.5502 377.311 8.32461C377.581 7.91333 377.851 7.77625 378.257 7.77625C378.662 7.77625 378.798 7.91333 379.068 8.32461C379.338 8.73589 379.203 9.01009 378.933 9.55847C373.931 18.8808 369.74 27.5177 366.36 35.3321C362.98 43.1464 359.195 53.2914 354.733 65.3556C354.598 65.7669 354.463 66.1782 354.193 66.5895C354.057 67.0007 353.787 67.6862 353.381 68.6459C352.976 69.6055 352.705 70.7023 352.435 71.9361C352.165 73.17 351.759 74.5409 351.489 75.7747C351.218 77.0086 351.083 78.3795 350.948 79.4763C350.813 80.573 350.948 81.5327 351.218 82.2182C351.489 82.9036 351.894 83.3149 352.57 83.3149C353.922 83.3149 355.545 82.7665 357.437 81.6698C359.33 80.573 361.358 79.065 363.521 77.1457C365.684 75.2264 367.982 73.1699 370.28 70.9764C372.579 68.7829 374.742 66.4524 376.905 64.1218C379.068 61.7912 381.096 59.5977 382.853 57.5413C384.611 55.4849 386.098 53.9768 387.315 52.4688Z" fill="#232B49"/>
<path d="M411.919 52.4687C412.054 52.4687 412.054 52.3316 412.189 52.3316C412.324 52.3316 412.324 52.3316 412.324 52.3316C412.324 52.3316 412.324 52.3316 412.46 52.4687C412.595 52.6058 412.46 52.6058 412.46 52.6058V52.7429C411.108 53.8396 410.161 54.5251 409.35 55.0735C408.539 55.6219 407.863 56.1702 407.322 56.4444C406.781 56.7186 406.241 57.1299 405.7 57.5412C405.43 57.6783 405.024 57.9525 404.618 58.2267C402.32 59.5976 400.698 60.4202 399.481 60.4202C398.264 60.4202 397.588 60.0089 397.183 59.0492C396.777 58.0896 396.777 56.9928 397.048 55.6218C397.318 54.2509 397.588 52.8799 398.129 51.509C398.264 51.2348 398.264 51.0977 398.129 50.9606C397.994 50.8235 397.859 50.9606 397.588 51.0977C396.642 51.6461 395.831 52.3316 395.02 53.1541C394.884 53.2912 394.614 53.5654 394.479 53.7025C392.992 55.0735 391.505 56.4444 390.017 57.5412C388.53 58.6379 387.314 59.5976 386.232 60.0089C385.151 60.4202 384.339 60.4202 383.934 59.7347C383.393 58.775 383.528 57.6783 384.339 56.1702C385.151 54.6622 386.097 53.2912 387.584 51.9203C389.071 50.5493 390.423 49.3155 391.775 48.3558C393.127 47.3961 394.479 46.9849 395.425 46.9849C396.372 46.9849 396.777 47.6703 396.642 49.1784C396.642 49.3155 396.642 49.3155 396.642 49.4526C396.642 49.5897 396.642 49.5897 396.777 49.5897C396.912 49.5897 396.912 49.5897 397.048 49.4526C397.859 48.63 398.67 48.3558 399.346 48.3558C399.887 48.4929 400.157 49.0413 400.022 49.8639C399.887 50.6864 399.751 51.7832 399.481 53.0171C399.211 54.1138 399.075 55.2106 398.94 56.1702C398.805 57.1299 398.94 57.8154 399.211 58.3637C399.751 58.9121 400.427 58.9121 401.509 58.6379C402.59 58.3637 403.807 57.6783 405.024 56.9928C406.241 56.3073 407.593 55.3477 408.674 54.5251C409.756 53.7025 410.702 53.017 411.378 52.4687C411.648 52.7428 411.919 52.4687 411.919 52.4687ZM385.827 58.9121C385.962 59.1863 386.638 58.9121 387.584 58.2267C388.53 57.5412 389.747 56.5815 390.964 55.4848C392.181 54.388 393.533 53.2912 394.614 52.1945C394.749 52.0574 394.884 51.9203 394.884 51.7832C394.884 51.6461 395.02 51.3719 394.884 51.2348C394.614 50.6864 393.938 50.5493 392.992 50.9606C392.045 51.3719 391.099 51.9203 390.017 52.8799C388.936 53.8396 388.125 54.5251 387.584 55.2106C386.773 56.3073 386.232 57.1299 385.962 57.8154C385.691 58.5008 385.691 58.775 385.827 58.9121Z" fill="#232B49"/>
<path d="M486.95 52.1945C487.085 52.1945 487.22 52.3316 487.22 52.6058C487.22 52.88 487.085 53.0171 486.679 53.2913C481.542 56.5815 475.864 59.8718 469.51 63.2991C463.156 66.7265 458.018 69.1942 453.828 70.8393C450.042 72.3473 446.933 73.4441 444.229 74.2666C443.418 74.5408 442.742 74.9521 442.201 75.5005C441.66 76.0488 441.255 76.5972 440.984 77.0085C438.01 83.8632 434.901 90.4436 431.791 97.0241C431.386 97.5725 430.98 97.9838 430.439 97.9838C429.898 97.9838 429.493 97.8467 429.087 97.5725C428.682 97.2983 428.682 96.7499 428.952 96.2016C431.791 89.7582 434.495 83.4519 437.064 77.4198C437.199 77.0085 437.199 76.5972 437.064 76.4601C436.928 76.323 436.658 76.0488 436.117 76.0488C432.737 76.1859 431.656 74.815 432.873 71.7989C434.089 68.7829 437.199 64.533 442.201 58.9121C443.283 57.6783 444.229 56.4444 445.31 55.2106C445.716 54.6622 446.257 53.9768 446.933 53.1542C447.609 52.3316 448.149 51.372 448.69 50.5494C449.231 49.7269 449.637 49.0414 449.772 48.6301C456.802 33.1385 464.508 17.3728 472.619 1.4699C472.754 1.19571 473.025 1.05863 473.295 0.921535C473.566 0.784441 473.701 0.921522 473.836 1.05862C473.971 1.19571 473.971 1.46991 473.836 1.88119C467.617 15.4535 461.533 29.0257 455.585 43.0093C455.315 43.6947 455.179 44.2431 455.315 44.5173C455.45 44.7915 455.585 44.7915 455.991 44.5173L456.126 44.3802C459.776 41.09 463.561 37.7997 467.347 34.5095C472.214 30.3967 477.351 25.8726 482.488 21.0743C482.759 20.8001 483.164 20.663 483.435 20.5259C483.705 20.3888 483.975 20.5259 484.111 20.663C484.246 20.8001 484.111 21.2114 483.84 21.6227C480.866 24.9129 477.757 27.7919 474.782 30.5337C471.808 33.2756 468.699 35.7433 465.724 38.211C462.345 41.09 458.83 43.9689 455.45 46.985C454.503 47.9446 453.557 49.1785 452.746 50.4123C451.935 51.6462 451.259 52.7429 450.988 53.2913C448.42 59.4605 445.716 65.4926 443.012 71.5247C442.877 71.936 442.742 72.2102 442.877 72.3473C443.012 72.4844 443.012 72.6215 443.147 72.7586C443.283 72.8957 443.418 72.7586 443.688 72.7586C449.907 70.8393 457.072 67.8232 465.048 63.8475C473.025 59.8718 480.055 56.0332 486.003 52.3316C486.544 52.1945 486.814 52.1945 486.95 52.1945ZM445.446 58.6379C445.716 58.0896 445.716 57.8154 445.716 57.6783C445.716 57.5412 445.446 57.5412 445.31 57.8154C445.175 57.9525 445.04 58.0896 444.905 58.3638C444.634 58.6379 444.499 58.9121 444.229 59.1863C444.094 59.3234 443.823 59.5976 443.418 60.0089C442.607 60.8314 441.66 61.9282 440.579 63.4362C439.497 64.9442 438.28 66.3152 437.199 67.8232C436.117 69.3313 435.441 70.7022 435.036 71.7989C434.63 72.8957 434.901 73.7183 435.577 73.9924C435.982 74.1295 436.523 74.1295 437.199 74.2666C437.604 74.2666 438.01 73.9924 438.551 73.5812C439.092 73.1699 439.362 72.7586 439.497 72.2102C441.525 67.549 443.553 63.0249 445.446 58.6379ZM445.31 58.9121C445.31 59.0492 445.31 59.0492 445.31 58.9121C445.446 58.775 445.446 58.6379 445.446 58.6379C445.446 58.775 445.31 58.9121 445.31 58.9121Z" fill="#232B49"/>
<path d="M499.929 46.7108C500.199 46.4366 500.469 46.2995 500.875 46.1624C501.281 46.0253 501.686 46.1624 501.957 46.4366C502.227 46.7108 502.362 47.2592 502.362 48.0817C501.821 50.001 501.01 52.1945 500.064 54.7993C499.118 57.4041 498.036 59.8718 497.09 62.0653C496.819 62.7507 496.414 63.162 496.143 63.162C495.873 63.162 495.603 63.0249 495.332 62.7507C495.062 62.4765 495.062 62.0653 495.197 61.654C495.332 60.9685 495.603 60.2831 495.738 59.5976C496.684 56.0332 497.63 53.2913 498.442 51.372C498.577 50.8236 498.442 50.8236 497.901 51.2349C497.766 51.372 497.63 51.5091 497.63 51.5091C496.279 52.7429 494.656 54.2509 492.899 55.759C491.141 57.267 489.519 58.0896 488.167 58.5008C486.545 58.5008 485.733 57.8154 485.598 56.5815C485.463 55.3477 485.733 53.8397 486.409 52.3316C487.085 50.8236 487.761 49.3156 488.437 48.0817C488.708 47.6704 489.113 47.5334 489.789 47.3963C490.465 47.2592 490.871 47.5334 491.276 47.8075C491.682 48.0817 491.547 48.7672 490.871 49.8639C490.06 51.0978 489.248 52.3316 488.573 53.5655C487.897 54.7993 487.491 55.759 487.356 56.4444C487.356 57.5412 487.626 57.8154 488.437 57.5412C489.249 57.267 490.33 56.5815 491.547 55.6219C492.764 54.6622 493.845 53.5655 494.927 52.6058C496.008 51.6462 496.684 50.8236 497.09 50.4123C497.63 49.8639 498.171 49.1785 498.712 48.3559C499.118 47.8075 499.523 47.2592 499.929 46.7108Z" fill="#232B49"/>
<path d="M536.567 52.4688C536.702 52.3317 536.837 52.3317 536.972 52.3317C537.108 52.3317 537.243 52.4688 537.378 52.6059C537.513 52.743 537.378 52.8801 537.243 53.1543C534.404 56.5816 531.7 59.7348 528.996 62.7508C526.292 65.7669 523.588 68.783 520.749 71.6619C512.908 79.6134 507.095 84.1375 503.174 85.5084C499.254 86.8793 497.496 85.2342 497.496 80.8472C497.496 76.4602 499.389 69.3313 503.174 59.5977C507.095 49.5898 510.745 40.5416 514.395 32.5902C518.045 24.6388 521.966 16.5502 526.562 8.32461C526.833 7.91333 527.103 7.77625 527.509 7.77625C527.914 7.77625 528.05 7.91333 528.32 8.32461C528.591 8.73589 528.455 9.01009 528.185 9.55847C523.183 18.8808 518.992 27.5177 515.612 35.3321C512.232 43.1464 508.447 53.2914 503.985 65.3556C503.85 65.7669 503.715 66.1782 503.445 66.5895C503.309 67.0007 503.039 67.6862 502.633 68.6459C502.228 69.6055 501.957 70.7023 501.687 71.9361C501.417 73.17 501.011 74.5409 500.741 75.7747C500.47 77.0086 500.335 78.3795 500.2 79.4763C500.065 80.573 500.2 81.5327 500.47 82.2182C500.741 82.9036 501.146 83.3149 501.822 83.3149C503.174 83.3149 504.797 82.7665 506.689 81.6698C508.582 80.573 510.61 79.065 512.773 77.1457C514.936 75.2264 517.234 73.1699 519.533 70.9764C521.831 68.7829 523.994 66.4524 526.157 64.1218C528.32 61.7912 530.348 59.5977 532.105 57.5413C533.863 55.4849 535.35 53.9768 536.567 52.4688Z" fill="#232B49"/>
<path d="M561.171 52.4687C561.306 52.4687 561.306 52.3316 561.441 52.3316C561.576 52.3316 561.576 52.3316 561.576 52.3316C561.576 52.3316 561.576 52.3316 561.711 52.4687C561.847 52.6058 561.711 52.6058 561.711 52.6058V52.7429C560.359 53.8396 559.413 54.5251 558.602 55.0735C557.791 55.6219 557.115 56.1702 556.574 56.4444C556.033 56.7186 555.493 57.1299 554.952 57.5412C554.681 57.6783 554.276 57.9525 553.87 58.2267C551.572 59.5976 549.95 60.4202 548.733 60.4202C547.516 60.4202 546.84 60.0089 546.435 59.0492C546.029 58.0896 546.029 56.9928 546.299 55.6218C546.57 54.2509 546.84 52.8799 547.381 51.509C547.516 51.2348 547.516 51.0977 547.381 50.9606C547.246 50.8235 547.111 50.9606 546.84 51.0977C545.894 51.6461 545.083 52.3316 544.272 53.1541C544.136 53.2912 543.866 53.5654 543.731 53.7025C542.244 55.0735 540.757 56.4444 539.269 57.5412C537.782 58.6379 536.566 59.5976 535.484 60.0089C534.403 60.4202 533.591 60.4202 533.186 59.7347C532.645 58.775 532.78 57.6783 533.591 56.1702C534.403 54.6622 535.349 53.2912 536.836 51.9203C538.323 50.5493 539.675 49.3155 541.027 48.3558C542.379 47.3961 543.731 46.9849 544.677 46.9849C545.624 46.9849 546.029 47.6703 545.894 49.1784C545.894 49.3155 545.894 49.3155 545.894 49.4526C545.894 49.5897 545.894 49.5897 546.029 49.5897C546.164 49.5897 546.164 49.5897 546.299 49.4526C547.111 48.63 547.922 48.3558 548.598 48.3558C549.139 48.4929 549.409 49.0413 549.274 49.8639C549.139 50.6864 549.003 51.7832 548.733 53.0171C548.463 54.1138 548.327 55.2106 548.192 56.1702C548.057 57.1299 548.192 57.8154 548.463 58.3637C549.003 58.9121 549.679 58.9121 550.761 58.6379C551.842 58.3637 553.059 57.6783 554.276 56.9928C555.493 56.3073 556.845 55.3477 557.926 54.5251C559.008 53.7025 559.954 53.017 560.63 52.4687C560.9 52.7428 561.171 52.4687 561.171 52.4687ZM535.079 58.9121C535.214 59.1863 535.89 58.9121 536.836 58.2267C537.782 57.5412 538.999 56.5815 540.216 55.4848C541.433 54.388 542.785 53.2912 543.866 52.1945C544.001 52.0574 544.136 51.9203 544.136 51.7832C544.136 51.6461 544.272 51.3719 544.136 51.2348C543.866 50.6864 543.19 50.5493 542.244 50.9606C541.297 51.3719 540.351 51.9203 539.269 52.8799C538.188 53.8396 537.377 54.5251 536.836 55.2106C536.025 56.3073 535.484 57.1299 535.214 57.8154C534.943 58.5008 534.943 58.775 535.079 58.9121Z" fill="#232B49"/>
<path d="M580.775 52.3316C580.91 52.3316 580.91 52.4687 581.045 52.4687C581.181 52.4687 581.045 52.7429 580.91 52.7429C579.829 53.7026 578.612 54.6622 577.26 55.6219C575.908 56.5815 574.421 57.4041 572.934 57.9525C571.447 58.5008 569.96 58.9121 568.472 58.9121C567.391 58.9121 566.85 58.6379 566.58 58.0896C566.309 57.5412 566.309 56.9928 566.58 56.1703C566.85 55.3477 567.121 54.6622 567.391 53.9768C567.661 53.4284 567.797 52.88 567.932 52.4687C568.067 52.0574 568.067 51.6462 568.067 51.372C567.661 50.9607 567.121 51.0978 566.445 51.9204C565.769 52.7429 564.958 53.7026 564.146 55.0735C563.2 56.4444 562.389 57.6783 561.443 58.775C560.496 59.8718 559.685 60.2831 559.009 60.0089C558.603 59.8718 558.468 59.5976 558.603 59.1863C558.739 58.775 558.874 58.2267 559.144 57.6783C559.55 56.7186 559.82 56.0332 560.091 55.3477C560.496 54.1139 561.172 52.88 561.848 51.5091C561.983 51.372 562.118 51.2349 562.389 51.2349C562.659 51.2349 562.93 51.2349 563.2 51.372C563.47 51.5091 563.606 51.6462 563.606 52.0575C563.335 52.88 563.065 53.7026 562.794 54.388C562.659 54.9364 562.524 55.4848 562.254 55.8961V56.0332C562.254 56.0332 562.254 56.0332 562.254 56.1703C562.254 56.3074 562.254 56.1703 562.254 56.3073C562.254 56.3073 562.254 56.3074 562.389 56.1703C562.524 56.0332 562.524 56.0332 562.524 55.8961C563.065 55.0735 563.741 54.1138 564.417 53.1542C565.093 52.1945 565.769 51.372 566.445 50.6865C566.715 50.4123 567.121 50.1382 567.661 50.0011C568.202 49.864 568.743 49.864 569.148 50.2752C569.148 50.2752 569.284 50.4123 569.284 50.5494C569.419 50.6865 569.419 50.8236 569.554 50.9607V51.0978C569.689 51.6462 569.689 52.1946 569.554 52.7429C569.419 53.2913 569.148 53.8397 568.878 54.388C568.608 55.0735 568.337 55.6219 568.202 56.1703C568.067 56.7186 568.202 57.1299 568.472 57.5412C569.284 58.0896 570.771 58.0896 572.934 57.1299C575.097 56.1703 577.53 54.7993 579.964 52.6058C580.505 52.4687 580.64 52.3316 580.775 52.3316Z" fill="#232B49"/>
<path d="M618.492 53.4284C613.22 56.9928 607.812 60.9685 602.54 65.3555C601.323 70.1538 599.295 74.6778 596.726 79.2019C594.158 83.726 591.319 87.7017 588.344 91.4032C585.37 95.1047 582.531 98.1208 579.962 100.451C579.287 101 578.34 101.822 577.123 102.919C575.907 104.016 574.555 104.975 573.068 105.798C571.581 106.621 570.229 107.306 568.877 107.58C567.525 107.854 566.443 107.443 565.632 106.484C564.821 105.25 565.227 103.056 566.849 100.314C568.471 97.5724 571.04 94.1451 574.284 90.4436C577.529 86.7421 581.45 82.7664 585.776 78.6535C590.102 74.5407 594.428 70.7021 599.025 66.8635C600.377 62.3394 600.917 57.5412 600.917 52.3316C600.917 50.6865 600.241 49.7268 599.16 49.4526H599.025C599.025 49.4526 599.025 49.4526 598.889 49.4526C598.349 49.4526 597.673 49.7268 597.132 50.001C596.591 50.2752 595.915 50.5494 595.51 50.9607C595.51 50.9607 595.51 50.9607 595.374 51.0978C595.374 51.0978 595.374 51.0978 595.239 51.2349C595.104 51.3719 594.834 51.509 594.698 51.6461C594.158 52.1945 593.482 52.7429 592.806 53.4284C590.913 55.2106 589.02 56.8557 586.857 58.6379C584.694 60.4201 582.802 61.7911 580.909 62.6136C579.016 63.4362 577.529 63.5733 576.448 62.7507C575.366 61.791 575.096 60.4201 575.636 58.775C576.177 57.1299 577.259 55.6219 578.746 54.1138C580.233 52.6058 581.99 51.509 583.883 50.8236C585.776 50.1381 587.533 50.2752 589.156 51.372C589.561 51.7832 589.561 52.1945 589.426 52.6058C589.291 53.0171 588.885 53.4283 588.344 53.8396C587.804 54.2509 587.263 54.1138 586.857 53.9767C585.235 54.5251 583.613 55.2106 581.99 56.3073C580.368 57.4041 579.287 58.5008 578.475 59.4605C577.664 60.4201 577.799 61.1056 578.611 61.5169C579.962 61.5169 581.72 60.8314 583.613 59.4605C585.505 58.0895 587.533 56.3073 589.696 54.388C590.778 53.4284 591.859 52.4687 592.941 51.6461C593.076 51.509 593.211 51.372 593.347 51.372C593.347 51.372 593.482 51.2349 593.617 51.2349L593.752 51.0978C594.698 50.2752 595.78 49.4526 596.997 48.7672C598.213 48.0817 599.43 47.6704 600.512 47.8075C600.512 47.8075 600.512 47.8075 600.647 47.8075C601.188 47.9446 601.728 48.3559 602.134 48.9043C602.134 48.9043 602.134 49.0414 602.269 49.0414C602.54 49.4526 602.81 50.001 602.945 50.5494C603.216 51.3719 603.351 52.3316 603.486 53.2913C603.621 54.2509 603.621 55.2106 603.621 56.0331C603.621 56.0331 603.621 56.0331 603.621 56.1702C603.621 56.1702 603.621 56.1702 603.621 56.3073C603.621 58.775 603.486 61.3798 602.945 63.9846C608.758 59.3234 613.896 55.6218 618.222 52.88C618.492 52.7429 618.628 52.7429 618.763 52.88C618.898 53.0171 618.898 53.1542 618.898 53.2913C618.898 53.4283 618.628 53.2913 618.492 53.4284ZM584.154 91.9516C587.263 88.5243 589.967 84.9598 592.535 81.1212C595.104 77.2826 597.132 73.1698 598.619 68.7828C592.535 73.9924 587.128 79.0648 582.261 84.0002C577.394 88.9355 573.609 93.3225 570.905 97.0241C568.201 100.726 566.984 103.193 567.39 104.564C567.795 105.387 568.606 105.661 569.688 105.25C570.769 104.838 571.986 104.016 573.473 102.919C574.96 101.822 576.312 100.451 577.799 98.9434C579.287 97.4353 580.503 96.2015 581.585 94.9677C582.666 93.7338 583.477 92.7742 584.018 92.2258C584.018 92.0887 584.018 91.9516 584.154 91.9516Z" fill="#232B49"/>
<path d="M632.689 52.4688C632.824 52.3317 633.094 52.3317 633.23 52.3317C633.365 52.3317 633.5 52.4688 633.5 52.6059C633.5 52.743 633.365 52.8801 633.094 53.1543C630.796 54.7994 628.363 56.1703 626.064 57.2671C623.766 58.3639 621.738 58.9122 620.116 59.1864C618.494 59.4606 617.412 58.9122 617.007 57.8155C616.601 56.7187 617.142 54.7994 618.494 52.0575C618.764 51.7833 619.034 51.5091 619.44 51.5091C619.846 51.5091 620.251 51.6462 620.657 51.7833C621.062 51.9204 621.062 52.3317 620.792 52.8801C619.305 55.4849 618.899 57.13 619.575 57.6784C620.251 58.2268 621.738 58.0897 624.037 57.13C626.335 56.1704 629.444 54.6623 632.689 52.4688ZM620.657 49.864C620.386 49.864 620.251 49.7269 620.116 49.4527C619.981 49.1785 619.981 48.9044 619.981 48.4931C619.981 48.356 619.981 48.356 620.116 48.2189C620.116 48.2189 620.116 48.2189 620.116 48.0818C620.251 47.6705 620.522 47.5334 620.657 47.3963C620.927 47.2592 621.333 47.1221 621.738 47.1221C621.873 47.1221 622.009 47.2592 622.279 47.2592C622.549 47.2592 622.549 47.5334 622.685 47.6705C622.82 47.8076 622.685 48.2189 622.549 48.4931C622.414 48.7673 622.144 49.0415 621.873 49.3156C621.603 49.5898 621.062 49.864 620.657 49.864Z" fill="#232B49"/>
</svg>
