<svg width="40" height="40" viewBox="0 0 40 40" fill="none" xmlns="http://www.w3.org/2000/svg">
<g id="Icon / 40 / White / Arrow Left">
<path id="Bg" fill-rule="evenodd" clip-rule="evenodd" d="M0 20C0 8.95431 8.95431 0 20 0C31.0457 0 40 8.95431 40 20C40 31.0457 31.0457 40 20 40C8.95431 40 0 31.0457 0 20Z" fill="white"/>
<path id="Shape" d="M16.2878 19.3048L22.3223 13.2872C22.7062 12.9043 23.3285 12.9043 23.7122 13.2872C24.0959 13.6699 24.0959 14.2905 23.7122 14.6731L18.3726 19.9977L23.7121 25.3222C24.0958 25.705 24.0958 26.3255 23.7121 26.7082C23.3284 27.091 22.706 27.091 22.3221 26.7082L16.2877 20.6905C16.0958 20.4991 16 20.2485 16 19.9978C16 19.7469 16.096 19.4961 16.2878 19.3048Z" fill="#9DAFBD"/>
</g>
</svg>
