<svg width="309" height="239" viewBox="0 0 309 239" fill="none" xmlns="http://www.w3.org/2000/svg">
    <path d="M308.621 167.514C308.811 155.384 306.133 144.023 300.313 133.504C294.493 122.985 286.17 114.6 275.432 108.4C267.551 103.85 259.203 101.109 250.575 100.053C249.379 98.3238 248.134 96.681 246.789 95.2114C242.839 90.8525 237.71 86.7365 231.424 83.2231C220.686 77.0231 209.299 74.1444 197.229 74.4503C190.63 74.6814 184.25 75.7321 178.212 77.789C176.838 71.5687 174.608 65.4314 171.458 59.6869C165.588 49.2542 157.266 40.8695 146.527 34.6695C138.646 30.1195 130.298 27.3783 121.67 26.3228C120.475 24.5934 119.229 22.9506 117.884 21.481C113.934 17.1221 108.755 13.0927 102.519 9.4927C91.7808 3.2927 80.3947 0.41398 68.3246 0.719941C56.3412 1.0759 45.0764 4.38711 34.79 10.8036C24.4171 17.1701 16.1422 25.9026 9.84219 36.8145C3.49219 47.813 0.290266 59.3589 0.0998163 71.4888C-0.0906335 83.6186 2.58757 94.9799 8.40763 105.499C14.2277 116.019 22.5504 124.403 33.2025 130.553C41.2565 135.203 49.3445 137.794 57.3299 138.363C62.6447 145.358 69.2426 151.13 77.21 155.73C87.9487 161.93 99.3348 164.809 111.405 164.503C118.005 164.272 124.385 163.221 130.422 161.164C131.746 167.471 134.026 173.522 137.176 179.266C142.996 189.786 151.319 198.17 161.971 204.32C170.025 208.97 178.113 211.561 186.098 212.13C191.413 219.125 198.011 224.897 205.978 229.497C216.717 235.697 228.103 238.576 240.173 238.27C252.156 237.914 263.421 234.603 273.708 228.186C284.081 221.82 292.305 213.174 298.655 202.175C305.092 191.227 308.294 179.681 308.621 167.514ZM145.527 139.401C143.708 141.353 141.765 143.118 139.872 144.796C141.551 135.489 144.928 126.238 150.178 117.145C155.378 108.138 161.528 100.488 168.749 94.3801C168.609 95.2229 168.468 96.0658 168.242 96.8586C166.43 105.397 163.106 113.754 158.492 121.945C154.742 128.44 150.45 134.275 145.527 139.401ZM34.1525 128.908C25.319 123.808 18.8016 116.696 14.6136 107.35C10.5122 98.054 8.93302 87.7892 10.0993 76.5691C11.2656 65.3491 14.8871 54.2764 21.1871 43.3645C27.4371 32.5392 35.0924 23.6799 44.1395 17.0098C53.2732 10.3897 62.8292 6.43834 72.9806 5.25558C83.082 4.15943 92.5994 6.07475 101.433 11.1747C107.841 14.8747 112.88 19.747 116.45 25.9647C115.061 25.9709 113.585 25.9271 112.195 25.9333C100.212 26.2893 88.9472 29.6005 78.6609 36.017C68.2879 42.3835 60.0131 51.116 53.7131 62.0279C47.3631 73.0264 44.1612 84.5723 43.9707 96.7022C43.7803 108.832 46.4584 120.193 52.2785 130.713C53.2874 132.565 54.3462 134.331 55.5051 135.924C48.1161 135.122 40.9075 132.808 34.1525 128.908ZM112.769 158.94C106.945 160.427 101.102 160.748 95.102 159.94C89.1023 159.132 83.5293 157.185 78.11 154.171C71.2684 150.221 65.8464 145.012 61.794 138.631C69.733 138.481 77.5693 136.308 85.4263 132.299L83.8674 131.399C76.4837 134.988 68.6741 136.715 60.4888 136.492C59.7995 135.286 59.1603 133.993 58.6077 132.75C54.5063 123.454 52.9271 113.189 54.0934 101.969C55.2597 90.7491 58.8812 79.6764 65.1812 68.7645C71.4312 57.9392 79.0865 49.0799 88.1336 42.4098C97.4173 35.5299 107.06 31.6285 117.075 30.4824C117.571 30.4226 118.154 30.4128 118.65 30.353C121.793 37.7099 122.713 45.5158 121.348 54.0806L128.339 38.3716C127.038 35.4262 125.586 32.7405 124.084 30.1415C131.55 30.4104 138.685 32.4515 145.49 36.2649C152.072 40.0649 157.458 45.1372 161.51 51.5183C165.562 57.8994 168.185 64.9563 169.256 72.5024C169.628 75.2577 169.863 78.0496 169.862 81.0512C167.737 82.1333 165.611 83.2153 163.522 84.434C153.149 90.8004 144.874 99.5329 138.574 110.445C132.224 121.443 129.022 132.989 128.831 145.119C128.821 147.538 128.86 149.87 129.122 152.215C123.824 155.392 118.407 157.576 112.769 158.94ZM163.057 202.638C154.224 197.538 147.706 190.427 143.518 181.081C140.276 173.897 138.722 166.187 138.685 157.852C140.761 156.856 142.887 155.774 144.889 154.506C155.262 148.139 163.487 139.493 169.837 128.495C176.187 117.496 179.389 105.95 179.58 93.8206C179.59 91.4019 179.551 89.0699 179.289 86.7244C186.526 82.589 194.029 79.9929 201.835 79.0726C211.937 77.9764 221.454 79.8917 230.288 84.9917C236.696 88.6917 241.735 93.564 245.305 99.7817C243.915 99.7879 242.439 99.7441 241.05 99.7503C229.067 100.106 217.802 103.417 207.516 109.834C197.143 116.2 188.868 124.933 182.568 135.845C176.218 146.843 173.016 158.389 172.825 170.519C172.635 182.649 175.313 194.01 181.133 204.53C182.142 206.382 183.201 208.148 184.36 209.741C176.971 208.939 169.812 206.538 163.057 202.638ZM274.432 213.131C269.51 218.257 264.281 222.513 258.76 225.676C253.189 228.926 247.498 231.183 241.674 232.67C235.85 234.157 230.007 234.479 224.007 233.67C218.007 232.862 212.434 230.915 207.015 227.902C200.173 223.952 194.751 218.743 190.699 212.362C198.638 212.211 206.474 210.038 214.331 206.029L212.772 205.129C205.388 208.718 197.579 210.445 189.394 210.222C188.704 209.016 188.065 207.723 187.512 206.481C183.411 197.184 181.832 186.92 182.998 175.7C184.164 164.479 187.786 153.407 194.086 142.495C200.336 131.67 207.991 122.81 217.038 116.14C226.172 109.52 235.728 105.569 245.879 104.386C246.376 104.326 246.959 104.316 247.455 104.257C250.598 111.613 251.518 119.419 250.153 127.984L257.144 112.275C255.842 109.33 254.391 106.644 252.889 104.045C260.355 104.314 267.49 106.355 274.295 110.169C280.877 113.969 286.262 119.041 290.315 125.422C294.367 131.803 296.99 138.86 298.06 146.406C299.131 153.952 298.785 161.951 296.923 170.576C295.111 179.114 291.787 187.471 287.174 195.662C283.647 202.17 279.354 208.006 274.432 213.131Z" fill="white" fill-opacity="0.02"/>
</svg>