<svg  viewBox="0 0 32 33" fill="none" xmlns="http://www.w3.org/2000/svg">
<path d="M16 8.61914C15.0111 8.61914 14.0444 8.91239 13.2222 9.46179C12.3999 10.0112 11.759 10.7921 11.3806 11.7057C11.0022 12.6194 10.9031 13.6247 11.0961 14.5946C11.289 15.5645 11.7652 16.4554 12.4645 17.1547C13.1637 17.8539 14.0546 18.3301 15.0246 18.5231C15.9945 18.716 16.9998 18.617 17.9134 18.2385C18.8271 17.8601 19.6079 17.2192 20.1574 16.397C20.7068 15.5747 21 14.608 21 13.6191C21 12.2931 20.4732 11.0213 19.5355 10.0836C18.5979 9.14592 17.3261 8.61914 16 8.61914ZM16 16.6191C15.4067 16.6191 14.8266 16.4432 14.3333 16.1135C13.8399 15.7839 13.4554 15.3154 13.2284 14.7672C13.0013 14.219 12.9419 13.6158 13.0576 13.0339C13.1734 12.4519 13.4591 11.9174 13.8787 11.4978C14.2982 11.0783 14.8328 10.7925 15.4147 10.6768C15.9967 10.561 16.5999 10.6204 17.1481 10.8475C17.6962 11.0746 18.1648 11.4591 18.4944 11.9524C18.8241 12.4458 19 13.0258 19 13.6191C18.9992 14.4145 18.6829 15.1771 18.1204 15.7396C17.558 16.302 16.7954 16.6183 16 16.6191Z" fill="black"/>
<path d="M16 2.61914C13.2311 2.61914 10.5243 3.44023 8.22202 4.97857C5.91973 6.51691 4.12532 8.70341 3.06569 11.2616C2.00607 13.8197 1.72882 16.6347 2.26901 19.3504C2.80921 22.0661 4.14258 24.5607 6.10051 26.5186C8.05845 28.4766 10.553 29.8099 13.2687 30.3501C15.9845 30.8903 18.7994 30.6131 21.3576 29.5535C23.9157 28.4938 26.1022 26.6994 27.6406 24.3971C29.1789 22.0948 30 19.3881 30 16.6191C29.9958 12.9074 28.5194 9.34891 25.8948 6.72432C23.2702 4.09973 19.7117 2.62338 16 2.61914V2.61914ZM10 26.9961V25.6191C10.0008 24.8237 10.3171 24.0611 10.8796 23.4987C11.442 22.9363 12.2046 22.6199 13 22.6191H19C19.7954 22.6199 20.558 22.9363 21.1204 23.4987C21.6829 24.0611 21.9992 24.8237 22 25.6191V26.9961C20.1792 28.0593 18.1085 28.6196 16 28.6196C13.8915 28.6196 11.8208 28.0593 10 26.9961V26.9961ZM23.992 25.5451C23.9721 24.2335 23.4377 22.9821 22.5039 22.0607C21.5702 21.1393 20.3118 20.6216 19 20.6191H13C11.6882 20.6216 10.4298 21.1393 9.4961 22.0607C8.56235 22.9821 8.02794 24.2335 8.00801 25.5451C6.19457 23.9259 4.91574 21.794 4.34084 19.4318C3.76594 17.0696 3.92211 14.5885 4.78864 12.317C5.65518 10.0455 7.19123 8.09081 9.19338 6.71171C11.1955 5.33261 13.5693 4.59417 16.0005 4.59417C18.4317 4.59417 20.8055 5.33261 22.8076 6.71171C24.8098 8.09081 26.3458 10.0455 27.2124 12.317C28.0789 14.5885 28.2351 17.0696 27.6602 19.4318C27.0853 21.794 25.8064 23.9259 23.993 25.5451H23.992Z" fill="black"/>
</svg>
