<svg width="21" height="24" viewBox="0 0 21 24" fill="none" xmlns="http://www.w3.org/2000/svg">
<path d="M14.7356 10.7932V5.51148C14.7356 4.39085 14.2905 3.31611 13.4981 2.52371C12.7057 1.7313 11.6309 1.28613 10.5103 1.28613C9.38966 1.28613 8.31493 1.7313 7.52252 2.52371C6.73011 3.31611 6.28494 4.39085 6.28494 5.51148V10.7932M2.03519 9.56781C2.07768 9.03838 2.31802 8.54438 2.70836 8.18419C3.0987 7.824 3.61039 7.62404 4.14152 7.62415H16.8788C17.41 7.62404 17.9217 7.824 18.312 8.18419C18.7023 8.54438 18.9427 9.03838 18.9852 9.56781L19.8334 20.1312C19.8567 20.4219 19.8196 20.7143 19.7244 20.9899C19.6292 21.2656 19.478 21.5185 19.2802 21.7328C19.0824 21.9472 18.8424 22.1183 18.5753 22.2353C18.3082 22.3523 18.0198 22.4128 17.7281 22.4129H3.29223C3.0006 22.4128 2.71214 22.3523 2.44502 22.2353C2.1779 22.1183 1.93791 21.9472 1.74015 21.7328C1.54238 21.5185 1.39114 21.2656 1.29593 20.9899C1.20072 20.7143 1.16362 20.4219 1.18695 20.1312L2.03519 9.56781Z" stroke="#2B3F88" stroke-width="2" stroke-linecap="round" stroke-linejoin="round"/>
</svg>
