<svg width="24" height="22" viewBox="0 0 24 22" fill="none" xmlns="http://www.w3.org/2000/svg">
<path d="M17.6065 1.9684C18.2143 1.96788 18.8161 2.08871 19.3766 2.3238C19.937 2.55889 20.445 2.9035 20.8705 3.33744C21.7474 4.22763 22.2389 5.42703 22.2389 6.67657C22.2389 7.92611 21.7474 9.1255 20.8705 10.0157L12.2222 18.7726L3.57383 10.0157C2.69696 9.1255 2.20544 7.92611 2.20544 6.67657C2.20544 5.42703 2.69696 4.22763 3.57383 3.33744C3.99964 2.90381 4.50759 2.55938 5.06801 2.32426C5.62843 2.08913 6.23008 1.96804 6.83783 1.96804C7.44557 1.96804 8.04722 2.08913 8.60764 2.32426C9.16806 2.55938 9.67601 2.90381 10.1018 3.33744L12.2222 5.50787L14.3342 3.35413C14.7584 2.91502 15.2669 2.56598 15.8292 2.32788C16.3914 2.08979 16.9959 1.96752 17.6065 1.9684ZM17.6065 0.29883C16.7764 0.298127 15.9546 0.463162 15.1891 0.784258C14.4236 1.10535 13.73 1.57605 13.1488 2.16874L12.2222 3.1037L11.2956 2.16874C10.7137 1.57712 10.0198 1.10724 9.25451 0.786502C8.48918 0.465763 7.66765 0.300579 6.83783 0.300579C6.008 0.300579 5.18648 0.465763 4.42114 0.786502C3.65581 1.10724 2.96197 1.57712 2.38009 2.16874C1.19626 3.37386 0.532959 4.99562 0.532959 6.68492C0.532959 8.37422 1.19626 9.99598 2.38009 11.2011L12.2222 21.1684L22.0643 11.2011C23.2481 9.99598 23.9114 8.37422 23.9114 6.68492C23.9114 4.99562 23.2481 3.37386 22.0643 2.16874C21.4825 1.5768 20.7888 1.1066 20.0234 0.78556C19.2581 0.464518 18.4365 0.299059 17.6065 0.29883Z" fill="#2B3F88"/>
</svg>
