<svg width="33" height="32" viewBox="0 0 33 32" fill="none" xmlns="http://www.w3.org/2000/svg">
<path fill-rule="evenodd" clip-rule="evenodd" d="M16.5352 0C7.69916 0 0.535156 7.164 0.535156 16C0.535156 24.836 7.69916 32 16.5352 32C25.3712 32 32.5352 24.836 32.5352 16C32.5352 7.164 25.3712 0 16.5352 0ZM16.535 2.6665C23.887 2.6665 29.8684 8.64784 29.8684 15.9998C29.8684 23.3518 23.887 29.3332 16.535 29.3332C9.18303 29.3332 3.2017 23.3518 3.2017 15.9998C3.2017 8.64784 9.18303 2.6665 16.535 2.6665ZM11.2021 13.3333H13.8688V11.0773C13.8688 9.056 14.9328 8 17.3301 8H20.5355V11.3333H18.6128C17.9968 11.3333 17.8688 11.5853 17.8688 12.2227V13.3333H20.5355L20.2955 16H17.8688V24H13.8688V16H11.2021V13.3333Z" fill="white"/>
</svg>
