<svg width="33" height="32" viewBox="0 0 33 32" fill="none" xmlns="http://www.w3.org/2000/svg">
<path fill-rule="evenodd" clip-rule="evenodd" d="M16.1426 0C7.30658 0 0.142578 7.164 0.142578 16C0.142578 24.836 7.30658 32 16.1426 32C24.9786 32 32.1426 24.836 32.1426 16C32.1426 7.164 24.9786 0 16.1426 0ZM16.1424 2.6665C23.4944 2.6665 29.4758 8.64784 29.4758 15.9998C29.4758 23.3518 23.4944 29.3332 16.1424 29.3332C8.79045 29.3332 2.80912 23.3518 2.80912 15.9998C2.80912 8.64784 8.79045 2.6665 16.1424 2.6665ZM19.376 9.48954C18.532 9.45087 18.2786 9.44287 16.1426 9.44287C14.0066 9.44287 13.7533 9.44954 12.9106 9.4882C10.74 9.58687 9.7293 10.6149 9.63063 12.7682C9.5933 13.6109 9.58396 13.8642 9.58396 16.0002C9.58396 18.1362 9.5933 18.3895 9.63063 19.2322C9.73063 21.3802 10.7373 22.4122 12.9106 22.5122C13.7533 22.5509 14.0066 22.5589 16.1426 22.5589C18.28 22.5589 18.532 22.5495 19.376 22.5122C21.5466 22.4135 22.556 21.3829 22.656 19.2322C22.6933 18.3895 22.7013 18.1362 22.7013 16.0002C22.7013 13.8642 22.6933 13.6122 22.656 12.7682C22.556 10.6162 21.5453 9.5882 19.376 9.48954ZM16.1422 8C13.9689 8 13.6982 8.00933 12.8435 8.04933C9.93686 8.18267 8.32353 9.79467 8.1902 12.7013C8.15153 13.556 8.1422 13.828 8.1422 16C8.1422 18.1733 8.15153 18.4453 8.1902 19.2987C8.32353 22.204 9.93686 23.8187 12.8435 23.952C13.6982 23.9907 13.9689 24 16.1422 24C18.3155 24 18.5875 23.9907 19.4422 23.952C22.3435 23.8187 23.9635 22.2067 24.0942 19.2987C24.1329 18.4453 24.1422 18.1733 24.1422 16C24.1422 13.828 24.1329 13.556 24.0942 12.7013C23.9635 9.79867 22.3489 8.18133 19.4422 8.04933C18.5875 8.00933 18.3155 8 16.1422 8ZM12.0339 16.0001C12.0339 13.7308 13.8739 11.8921 16.1419 11.8921C18.4099 11.8921 20.2499 13.7321 20.2499 16.0001C20.2499 18.2694 18.4099 20.1081 16.1419 20.1081C13.8739 20.1081 12.0339 18.2694 12.0339 16.0001ZM16.1419 18.6668C14.6686 18.6668 13.4753 17.4735 13.4753 16.0002C13.4753 14.5282 14.6686 13.3335 16.1419 13.3335C17.6139 13.3335 18.8099 14.5268 18.8099 16.0002C18.8099 17.4735 17.6139 18.6668 16.1419 18.6668ZM19.4527 11.7305C19.4527 11.1998 19.8833 10.7705 20.4127 10.7705C20.9447 10.7705 21.374 11.1998 21.374 11.7305C21.374 12.2612 20.9433 12.6905 20.4127 12.6905C19.882 12.6905 19.4527 12.2598 19.4527 11.7305Z" fill="white"/>
</svg>
