<svg  viewBox="0 0 25 25" fill="none" xmlns="http://www.w3.org/2000/svg">
<path d="M22.3452 21.2515L16.6812 15.5875C18.0423 13.9535 18.721 11.8576 18.5762 9.7359C18.4314 7.6142 17.4741 5.63002 15.9036 4.19611C14.3331 2.76221 12.2702 1.98898 10.1441 2.03729C8.01806 2.0856 5.99244 2.95172 4.48868 4.45548C2.98493 5.95924 2.1188 7.98486 2.07049 10.1109C2.02219 12.237 2.79541 14.2999 4.22932 15.8704C5.66322 17.4409 7.64741 18.3981 9.76911 18.543C11.8908 18.6878 13.9867 18.0091 15.6207 16.648L21.2847 22.312L22.3452 21.2515ZM3.59518 10.312C3.59518 8.97695 3.99106 7.67191 4.73276 6.56188C5.47446 5.45185 6.52867 4.58668 7.76207 4.07579C8.99547 3.5649 10.3527 3.43123 11.662 3.69168C12.9714 3.95213 14.1741 4.595 15.1182 5.53901C16.0622 6.48301 16.705 7.68574 16.9655 8.99512C17.2259 10.3045 17.0923 11.6617 16.5814 12.8951C16.0705 14.1285 15.2053 15.1827 14.0953 15.9244C12.9852 16.6661 11.6802 17.062 10.3452 17.062C8.55558 17.06 6.83984 16.3482 5.5744 15.0828C4.30896 13.8173 3.59716 12.1016 3.59518 10.312V10.312Z" fill="black"/>
</svg>
