<svg viewBox="0 0 21 24" fill="none" xmlns="http://www.w3.org/2000/svg">
<path d="M2.03519 9.56768C2.07768 9.03825 2.31802 8.54425 2.70836 8.18406C3.0987 7.82387 3.61039 7.62391 4.14152 7.62402H16.8788C17.41 7.62391 17.9217 7.82387 18.312 8.18406C18.7023 8.54425 18.9427 9.03825 18.9852 9.56768L19.8334 20.1311C19.8567 20.4217 19.8196 20.7141 19.7244 20.9898C19.6292 21.2654 19.478 21.5184 19.2802 21.7327C19.0824 21.9471 18.8424 22.1181 18.5753 22.2352C18.3082 22.3522 18.0198 22.4127 17.7281 22.4127H3.29223C3.0006 22.4127 2.71214 22.3522 2.44502 22.2352C2.1779 22.1181 1.93791 21.9471 1.74015 21.7327C1.54238 21.5184 1.39114 21.2654 1.29593 20.9898C1.20072 20.7141 1.16362 20.4217 1.18695 20.1311L2.03519 9.56768V9.56768Z" stroke="#2B3F88" stroke-width="2" stroke-linecap="round" stroke-linejoin="round"/>
<path d="M14.7356 10.7932V5.51148C14.7356 4.39085 14.2904 3.31611 13.498 2.52371C12.7056 1.7313 11.6309 1.28613 10.5103 1.28613C9.38963 1.28613 8.31489 1.7313 7.52249 2.52371C6.73008 3.31611 6.28491 4.39085 6.28491 5.51148V10.7932" stroke="#2B3F88" stroke-width="2" stroke-linecap="round" stroke-linejoin="round"/>
</svg>
